<mxfile host="Electron" agent="Mozilla/5.0 (Windows NT 10.0; Win64; x64) AppleWebKit/537.36 (KHTML, like Gecko) draw.io/26.0.16 Chrome/132.0.6834.196 Electron/34.2.0 Safari/537.36" version="26.0.16">
  <diagram name="Page-1" id="GtP3goJA7fB9YhMuLE4V">
    <mxGraphModel dx="1050" dy="638" grid="1" gridSize="10" guides="1" tooltips="1" connect="1" arrows="1" fold="1" page="1" pageScale="1" pageWidth="827" pageHeight="1169" math="0" shadow="0">
      <root>
        <mxCell id="0" />
        <mxCell id="1" parent="0" />
        <mxCell id="GV5ksCkz0bDb9famMgce-3" value="" style="rounded=0;whiteSpace=wrap;html=1;fillColor=none;" parent="1" vertex="1">
          <mxGeometry x="140" y="110" width="850" height="700" as="geometry" />
        </mxCell>
        <mxCell id="GV5ksCkz0bDb9famMgce-1" value="&lt;ul&gt;&lt;li&gt;Gestion des zones&lt;/li&gt;&lt;li&gt;Gestion des resultats des actions&lt;/li&gt;&lt;/ul&gt;" style="rounded=0;whiteSpace=wrap;html=1;" parent="1" vertex="1">
          <mxGeometry x="413.5" y="190" width="160" height="120" as="geometry" />
        </mxCell>
        <mxCell id="GV5ksCkz0bDb9famMgce-2" value="&lt;ul&gt;&lt;li&gt;Gestion des touches&lt;/li&gt;&lt;li&gt;Gestion des actions des robots&lt;/li&gt;&lt;/ul&gt;" style="rounded=0;whiteSpace=wrap;html=1;" parent="1" vertex="1">
          <mxGeometry x="190" y="190" width="170" height="120" as="geometry" />
        </mxCell>
        <mxCell id="GV5ksCkz0bDb9famMgce-4" value="&lt;font style=&quot;font-size: 21px;&quot;&gt;Roscore&lt;/font&gt;" style="text;html=1;align=center;verticalAlign=middle;whiteSpace=wrap;rounded=0;" parent="1" vertex="1">
          <mxGeometry x="550" y="80" width="60" height="30" as="geometry" />
        </mxCell>
        <mxCell id="GV5ksCkz0bDb9famMgce-5" value="&lt;font style=&quot;font-size: 17px;&quot;&gt;gestion_robots&lt;/font&gt;" style="text;html=1;align=center;verticalAlign=middle;whiteSpace=wrap;rounded=0;" parent="1" vertex="1">
          <mxGeometry x="170" y="150" width="170" height="30" as="geometry" />
        </mxCell>
        <mxCell id="GV5ksCkz0bDb9famMgce-6" value="&lt;font style=&quot;font-size: 17px;&quot;&gt;terrain&lt;/font&gt;" style="text;html=1;align=center;verticalAlign=middle;whiteSpace=wrap;rounded=0;" parent="1" vertex="1">
          <mxGeometry x="428.5" y="150" width="130" height="30" as="geometry" />
        </mxCell>
        <mxCell id="GV5ksCkz0bDb9famMgce-7" value="&lt;ul&gt;&lt;li&gt;int [3] ptsBlue, ptsRed&lt;/li&gt;&lt;ul&gt;&lt;li&gt;ptsTotal&lt;/li&gt;&lt;li&gt;ptsGoal&lt;/li&gt;&lt;li&gt;ptsClimb&lt;/li&gt;&lt;/ul&gt;&lt;/ul&gt;" style="rounded=0;whiteSpace=wrap;html=1;" parent="1" vertex="1">
          <mxGeometry x="625" y="190" width="150" height="120" as="geometry" />
        </mxCell>
        <mxCell id="GV5ksCkz0bDb9famMgce-8" value="&lt;font style=&quot;font-size: 17px;&quot;&gt;match&lt;/font&gt;" style="text;html=1;align=center;verticalAlign=middle;whiteSpace=wrap;rounded=0;" parent="1" vertex="1">
          <mxGeometry x="650" y="150" width="100" height="30" as="geometry" />
        </mxCell>
        <mxCell id="GV5ksCkz0bDb9famMgce-10" value="&lt;font style=&quot;font-size: 17px;&quot;&gt;Class Robot&lt;/font&gt;" style="text;html=1;align=center;verticalAlign=middle;whiteSpace=wrap;rounded=0;" parent="1" vertex="1">
          <mxGeometry x="329" y="410" width="170" height="30" as="geometry" />
        </mxCell>
        <mxCell id="GV5ksCkz0bDb9famMgce-11" value="" style="shape=image;verticalLabelPosition=bottom;labelBackgroundColor=default;verticalAlign=top;aspect=fixed;imageAspect=0;image=data:image/png,iVBORw0KGgoAAAANSUhEUgAAA7wAAAGsCAYAAAD+CquFAAAAAXNSR0IArs4c6QAAAARnQU1BAACxjwv8YQUAAAAJcEhZcwAADsMAAA7DAcdvqGQAANA/SURBVHhe7P0PdBvlgS9+f62c5tLfMYHT0t+JnPTXnJC1w12nBewb9semt4oNMiwNNychSW/BCpHeJW3D3mz9JnKV5U8KbFwsX1O6ZLfAkUgcYIEgnUDgQhzkmLtp35v8ZP4l7+vIzXLNqSOlS7oldu5C0mvN+4w0I41GM7IkS/6jfD89U+LRaOb5NzPPo5nneaokAUREREREREQVxqL8l4iIiIiIiKiisMFLREREREREFYkNXiIiIiIiIqpIbPAS0fSIf4KgaxmqqtbDP/SFspKIiIiIqHTY4J2E+JAfLVVVqGrxYyiurKSZJX4K/paaMjeqvsCQf704Rg1a/KeQKgpTcuzZKo7R/qdxv//3sHm3YX3tFcp6IiIiIqLSYYM3SxwXhvoR9LdjpdyYTSzLsLHrRbw2EEs3ZoioeBfCeObRPYDzKTzfthzVyupKkfoxbOUTGLjAqwYRERHRdGGDN8MohoIPYFXdSqx1daJfWQucRM/2u7G60Y5N/pO4oKwlomJ8gaFXurA9sgZPPfJdLOBViIiIiIjKhFXNlEs4E9wB29oO0dCth8P7NiJj45CnKZaki4iGe+C2/R49rkfwCl9PJZqEK1DrfAVS9CmsWTBXWVdZLLVOHJKvHUd+jIZqXmaJiIiIpgtrYqrRo/jF/bsRE41dZ+ANPLetBbWpiupcWBta8fjBPgTcX1fWERERERER0Uw2ZQ3eeOw49ra3KH1iq1Cz8QkcHhpVPp1uX2Do1V+iMwZYnT/FI6u/YZww1Uux5vH/CqfhADujGDr8BDbWKP1+azai6/CQ8evPF4bQF3wRXRvlEWqV7ata0O7vw5C+v5868FHNDvSNfoah4A6lb/EyuIKfpPsUy/t8tSt9fP1iMLBWPDaAYNdG1KS2k8PwBgZil5QtVOqgTI1o7/sXcagg2lfKgzGJfHQFcSZHF8XcA3udQ197o9iPblCnjDh/gdhAUJNWcn/qQ9nplBe5f/Yh3b6CBvGVifzsew2vZqRPDVa2+9FXqnIbj2HgtWdTaZlY5HITHEAsK3raPDiXlXelOp/U/Kpp78OoHL6gpkyZhC3jOxdOIaie5zX3I3hGm7aXdHlpvs+8y72QfzlWGMVLPlfVY+rKajFl2Pw7crnya/JcLlP7zMOqEz8ThEsON/sGExEREeVHKrtxaWxwj+SwQpIPl7nYJU9oRGwxzcYHJZ/dKsLTILlDnyorJzYe8Ul2OR62NsnrtuviJi/1kjMwnBm/1LH02yYXqzMgjWi/oG5vdUgdHQ7Jqt3WHZLOJ7YZlgLO+oz9ZC12nxRJ7TdXnojFukUKjFxUtpV9LkV868Rn9ZKjY2fm96weKXTePAdTaZRxfNWnUsjdIPajS/cccVaXrHQyk0pvu+T2tkk2g33B1i2Fx7Q7U+NrsK28mKaPVbL7BtP5nTr2OskX+VxZqRg7Ifkc5nlmdeyRBg3DZJAH6pIVrsKp+WV1dEjPGJZpq2TzHpPGlO1l6e/slDoy4qTN1/PSoM9pmJfyUlS5L7gcC+MjUshjEi/3Y5LbJh8zs0wXU4aNv3NRGglsMU4Dw33rjUvnQx7l+wZlioiIiIiylP8Jb3wIr2z1oCem/J2hFx337Eb/6DQ/qbgQReSEHMDFqFtYxHix/d3Y3gm49xxDdFyCNB7FsW4HrDgJ//1PZ8fvS7fDu/9NhKMXlT7C4xAVd4iKO2L+l3DotEEf4VgPPJ73cGv3UeUYv0P/fY2YB3V6l5OibfAUjqn7HBtEwC2q3IlXtIcxfsiJWjW3L4Txyx+KPKlzY084ClHPTn5HhDu8xw1bbDfu/8VRZD8vPIkez04cvlU9zkVE+zdj+bwyFaNEnA+jzt2jpJU43rGnlHTahV/0n1M2zEcvOrf34v/yBlLpPh49im5Hvcg/L3a8MqQbgftKOLwv4IA2fcZOQDRSxcGDePrQx7rtC/EZBn75E7h65DzrRm/kfHL/cjmIBCAaXSLqHvzwl2GDNwSSeaDNu1Q8TPOtcPLx79OW6VTax9C/vcuwH3usZyc8h29E9zE1XC/jvuVfEZ+IMtr3MzS53tLkZTJNx6PHsEeUU9P8NC33QsHlWD5XduOejl7A5kFATffE9q1A5wPo7De8UJWG2m3C6oRvUM3z84iEfHAvnKNslIsF1XWNuF2Uf9j+b3yrpjL7PxMRERGVlKh0lVXqSYfpUthT1XJIh7Gwpybp7xk8qc71dM/QRE8JrZLN0yuJSr+OyVNSwfgpk/qUyCRcqSdr2qdcmieetp1SKJr/U0TjMKgmeMJrGGeTdDKT2le95PCdyHgyKcsdvmzG2xf4hPd8SHLLTyWzniwnjY8EJKf8eQF5UGg8zKT2Y3VKolGmrFUZxzP1HdM3NpR8Ngmb+v30k1thwnJfTDlWy9sdkjf8B2Wd6qIUDe1MvgFQrie8ar5PMo+IiIiIKH9lfsIbx4WR0zih/GUsig+Gz03iadkMYN+Ae20LMvv9Wq7BoutrxD8+RmSkFBMZrUDrvd+G1TTH8n06/a8IH+pFDPvhqvuy0o9Qs8y5Dq7eGBA7jeGz+n6FVthbN8BmnaonS0Zxnov5i5aIkMRwIhItYIqo6/CdFUuy5nu1LLkZG+xWoPdtHDV6sl5ycYyG38G+mJyWt+MGgxF8LQv+I+5ubSgoDyzzF+F6+cnfidMYKUXfzmV/jhW1ieeoGldgyYrbYBdp3/vyr3Fafxij80A2+hEO7RsQaexC3RxdeRPLnDoXesVmsQ+GcTYr6GblvohyrIbD+k3c+Cf6uM2FtfHbWC6nYblUX4ubbq8X6fAANnuCRfZDJyIiIqJCmDafSsOC6oVLsEz5y1gNrl90TbkDklOqsTBl5IFrgvBrBvGqqvoy6lz7lc8L8RU0tthFM2g/HvhbH46rg99cOIUDvpdFQ0I0kDbcjCVqAsfPYfiDqPJHDtYlWDT/cn5lUh7gqh9Bf7syWFJyURtnxbuEs8OnRUMtH6X6sWR6xc8O44M8Imy9fhHm53shKKIcp8KxbAkWTsdUQZZvYPVj3fDYgP7Otai7ciFWtj+L1wZis/sHPyIiIqIZrOy1vtQTNDNWO1oa5X5+06i6BnXL5DBOQQMjfgZ9O9ahrnktXJ2TazolWTCv8Ra0iuDHeu7HTTX/Ltk4u/I6rJX3b9uOXetrDTJ6HXyRz5V+hAZLdBeaytU3dyZJPYnXuoRY36NYVbcSa12d6FfWkkiuyfw4ZPchkugPbLxEH29K9s0tyOwqxxbrrdh15BQioZfgdXxVNHzvw+pGOzb5TxbwtgIRERER5av8NUFLLdY/2ZEYaCibHZ7nt8A23RXSVKNnAPsOfVSSQX+MaQfN0Q20I32OiG+dsl0hPsPAM93ojNnhfkabzuJv30GEX9yCBu3TrJK/aj3LqU8KtU+0R4/i5/fsFA1dkYapQZuSy3jEJ9ZOhvpKdj6KHEStjNSnpIU8jS3LGxRFlOOSv/ZdtHmobdqAbXs/VAYp+z16XI8YDgRGRERERJMzBS1NC6qXbsRzA8nRWFXJ0Wn3Y1eTQZ+/KXcNbK4fJRoysc7H8bO+M8avGCaezt6dmAe1OOrrrHI/zE1obbBOPu7xs/jw8HuJ/pMu10+wN6o2zg7hced30ZDV31Z9BTqK4+99XPanSrkaGfFYBB+evaj8VW7ncXrk91n5Gj/9a7ws9/XUvOaaevVVTtPW5Tn6TRdDfc0/ht59b+F9g4ZX/Mx/xwtyX1P7bVixxGjO5ylw6TROntb/9PMFTh99O/Ga/LK6mqz+0KbUNyh6g3j9/c+UlZNVRDlWwxH7CO/9Rh+3S4iF/wnHDV69Ll8ZFmWh9i9EGVsh/s0foIiIiIjKYcramhbrcmx8/FDqSVl0749xa9agONPHUrsGu7x3iH/1oqPZCY+/TzOojKgMDwTRtek2NHf8cRJP3TQDLr17LL3/C0Po8z+MzcX04VWfdJ34FY4O5fNsWn0FWp5exoUtXYc08Uz3W21p7yvNk+5UI2MPHv1ZCLHEoeT03AfP99ehredkYrPyk/P1NmxKxVeOaxCezQ+IT+rh3Nyc6uecbuBo01Tud+1Xtp8cy5JmbHbK0yG1YdWWf0j3u1bT5Z774Y9lhqloo31or6lCVc0O9BUy/Vd/B9ba/gpdh4eUxqSIf/CRZBm1rsHmlsX5Xzwsi9GyeY0o929i+6qtmn3K1P7s30WL/5TxD02GiijH2nBs60RQzVtx/h3u+ks0NMtP9Q2UpAzLUzM9JMKT2Wc3HhvAm+8Oin/l9zQ/fiYIl5yfK5/AQCq+RERERGRmyhq8M9/VaPhBlzJ3bS86Xc2ou3KOMljRv0NN41ps7wEc3Vtxe9FP3UQlfflqtCXmWb0X16n7v7IOza59uGS7WVTGC3UNbP9lB5zww3XdVUp41aUmMShOsE/bwBDmrcBfP78TNnlO1+23aeI5B1cq/VZzj6xdAPmV9l3bxbFEw6TDjprEKL1yejrQif8Mr+apf1lZHejouBGHU/GV47o2Me+q1bEN2+1fT58M827E+rY7RANHm6ZXoa7Zhc5LdRDZNzmpwYvkcqDpd62mi2h12TzdeGz1NyZ9gqaeVhuO+JyDbQvct74n0qUOV6rxX9shGoT1cDz2A9gXFDKg2VwsWO3B8x6R17EezT7VdJX7s58tfPC6gsuxCIf9B3gsMfeyaNDXKXkrzj/79vdwa8dO464XJSvD/xsnEn12azBHif+cmhWJBrPV+T20THhdEQ35SBhvyfnZ///Bh9EC8pOIiIjoMsUGr1b1Uqx5/CCi4YPwZVRiRSXf+xJCkV9h74//fHKvuFYvR9uLBxHwOtKNW5sbvlA/3nraNcGI1gbin+DAQw/Db/AqpmhdJAbFWSsaFFuDn2iens2FtelBHIwcwX5tOASrw4v9B8IY6ChmACEjFlQ3bMGL4R64Uy1FuX9xCJGDj+JO0eiYmr6qC7D8R0+iP+TLCkf/7lYszRi192o0tD2LcMCr6xMtwvzWbrQmBjibnMTgRQf7EfK5RUMqLZH+oiwc3HVraV+lLvT16Lk3wvV3gczwJfqd9+I5Z33+rzOrLAvQtGu/MliTaHCmyOfWCwiEXsSDTdco6/JVRDmurodzdwC9mu3lbQNyvH70bcxX1mUqRRm2YF7TT0T508VfPvflcD67BgsmzG8RjrpG3C4HwfZ/41s1hfzoQERERHR5qpLk94tplpJfk3wAS5s7AMdTOPCzv8TyjD67lxDr68D35Vc15RFy33Kilj9xXEY+w0DXPWjcDnjDz2Nbw9XKenPxIT9ul6deuhzLi/z699JmdMKD0KnHLo9RyomIiIgqHGt0lSz+e0R/+2+JfxY0xylVhPiZPvx993uweR/CD/Jo7BIRERERVRo2gWY1bZ9gbV9QZZlTg8Z7O9Fv3YKn/suKEr2iTLPDZ3j/H/1469YO/MMPGgt/BZmIiIiIqAKwwTvbVS/HNrkvaOAZTf9Chdw/MHAEkaFfYE1BgwzR7Hc1Gra9gejejbr+yTQhzRRVRERERDS7sQ8vERERERERVSQ+xiAiIiIiIqKKxAYvERERERERVSQ2eImIiIiIiKgiscFLREREREREFYkNXiIiIiIiIqpIbPASERERERFRRWKDl4iIiIiIiCoSG7xERERERERUkdjgJSIiIiIioorEBi8RERERERFVJDZ4qYxGccrvQk1VFWo27sWpC3FlPRERERERUfmxwUtlcglngjvQ5DqOWzt24tbDHvxwVwgxtnmJiIiIiGiKVEmC8m+iErmEWF8Hvt/8NOA9gIPbrsf5YBv+w9p3cavvH7HbWY9qZUsiIiIiIqJy4RNeKrE4Lpz6R/zknp2IOJ/C823LReN2Lhas9uB5Tw16XD/BLwc+U7YlIqLpJb+Ncz9qqmrQ4j8lruBERESVhQ1eKjELqpduxN6ohKhvDRaoJcyyAE27DkGS3sC2hquVlbPNOfS1N6Kqaj38Q18o62aJ+Cn4W2pmZ9hnrDhG+3bMkIbCFxjyrxf5y0ZLtpmUTzPQ6FH84v7diNm2Y9f6WlYKiIio4vDeRiWmNgqrTJea9j6MKlvPTh8jMnJB+TdRDCciUbBEzHTMp2yfYeCZbnRiCwLPb0FD9fRVCeJDfrTI94iVT2CAAxwSEVEJscFLpRU/h+EPosof+VCfvlRCQ5iIaPaIDwWxY/sncD61HasXzFXWEhERVRY2eKlM1sEX+RzymGj6Jfp4E+YpWxER0fSw1DpxSDoB35pvTHtlIBkWcY848uNpfdJMRESVh3cVIiIiIiIiqkhs8NK0SfbZmoOrmjsQE3/HOptxldrXt8WPIaUbl9q3K/HK84VTCLa3JLepuR/BM5eSGyVcQmwgiK6Ny9J9hle2w//aQIHz/+r3swwbuw5hKFe/sgtD6Au+mHnsqha0+/uyv6cOIFWzA32jXxRwrFEM9fnRvlIefEretgYr2/dhIKZNg0LFRdD7EXy1Cxtr1HCLRU63vqH8+juO9qFd+92MxWiQLDl934BfzcfEIsc7aBiXjPyPxzAQ1IS1ZiO6DucIp377RJo9i9cGYgUNXhSPDSDYtTHx6r28n5qNT+Dw0EQv4JeqPMp51KdLL7lsvWGe96I8Hs4rvIXlf37nYnKfr2qOn7kYDB416/PJII/EPvYahn8Ky78JfTrlOn6C2XHVa5nmei1Tw6xfn2Q8+J/ZdyaMf9A8n7LjOcF5Q0RElUmiWei8FAm9JHkd9fIcysnF5pZ8B8JSdFzZZLqMD0o+u1WEaZ3ki3yurDQ2HvFJdjX8+sXukyJKXNTtrI6dUoc2zmiQ3KFPkxuJNBn0OSVr6rPMxeoMSCN5pc1FKRraKdkM9gHbFsmdOL72uEIqzgbfEUvWsdXtrQ6po8NhGObs8F6URgJbjOOnSStTJvmSMw9QLzkDw9KEyXY+JLmtRt+XF305yJ1PsDol3+B5Zdsk8/xXF5Nwjp2QfIbb5/iOgfFor+SxGeWvXWpzfz8RF6s7JGKmNQXlUSzp434uRXzrxDqrZHM/JrmNwmvdIgVGLia2VhWa//mci+MjAclpWh7kxSrZfYPp/VZAPpnHeRrLv6FxaWxwj+Qwyx+DMiIiJ4U8doPtNWXN6pFC59MhSJUrw2vTp1LI3SC+n3kdNftOOv4d0jNuk3B4j0ljyvZJRcSTiIgqFhu8s41c+XjQI3l7I9k3+MjbktftlULRabyRT9D4y64AjYv2ksekMpqUqgjJi2gkdh+LJip349HT0umxxL+ksXC3aBTIFbAeKayJ/3j0mLQnUUnSNVLNpBpvdskdGFTSWDQ6wj2aRoRBg/cOp+Td/6bm2NoKl67Sm5FG2jCL4xx7SvmO7hhquDIqxPIPHz7J7dwzqQbvHQ6vtD/jxxJNpTyfxnQWNT/0DYb0ejkfM8rw2KAUUCuztm4pnMjXpIz8l/Nlz7FkWMej0rFu5QcDXYVbkv4ghb13ZG6foMnLrO8YUSvncj4FpIgSrnS5SoYrs+yWuzzK+wlLAa9Dujarwaukk80t7Qmr58lRqVtpKOnPsULzf+JzUU2vesnRfVTZp0iPSEBJc31DoxLySRNn3wklj+Q4hySfu01zvk1l+TehlidN+UgQ+wrvcSfPWV0aqddn2DxSIKJ8otk+WRbK3+DNin/G9VJ3jR07JnnlspN3PImIqJKxwTuryJXDrZI3/AflbwPyjd7xZEaFaUqVtcFrlzyhkXTlJUWpQJk0ztTvT1zBUcMiKsBZTwzEp6knSHk2VjRP3TKeaKXSSBzH06up5MtMvqNWVE3iOCGTBq+pQrfXUiubWY0btaJ7h3EZHh+WAk65YWZSETbKf7NwJtJLl4YpahrnkY+pBkJmIyRB8+Qrs2yVqjxqntoalMdMmgavbWfWj16pNMy3/Jik64TnoppeWQ2wXOV6tueTWq4nOlemsPwbUq9vJtuq+8rIu1xhFg1O9e2DqWjwGjz9Ni5XxcSTiIgqGfvwziLyFBIPf3on7mu4WlljoLoR9208h4dfGSqo71vpmYzSfMiJ2mJLnX0D7rUtyO54PvoRDu0bAHpdqJuj9tVKL3PqXOgVm8U+GMbZnInyrwgf6kUMNVh+42JUK2tVFusNuGV5jfJXKaxA673fhjUjQnMxf9ESWPVzhlZfi5turxdxfACbPcHc/Ymn1WcY+OUj2N7/1eypTtR8sq/BnTcYlGHL13HL3atE3KP4YPhcdvk1yn/LNVh0vZwn2rmR4xgNv4N9sZgoEtdhjq48VFV9GXWu/WI7k+OkqPsR1enl38Kf6EeOtVjReEuDCK9OycrjBYxEPhb/FeXkzm9mlUdjVthbN8BmzZxixjJ/Ea6XA3riNEZKUXbMzkXVsiVYOOFIu5WST/NQd9Ofif3vh2vzIwia9RmesvJvRr2+iXDWfTkrvlVzroOrVyRi7DSGzyp9XNUwW7+JG/9EP7b+XFgbv43lWQlbJsv+HCtq9WG4AktW3Aa7iFXvy7/G6USiFRFPIiKqaBPVSGjG+AKnj4bwx7qaCSq+FlQvXIQ/pm7+lS9+dhgfyKNeTcB6/SLMz1XiU3MIL0bdwvyaF2nygFJB3UA0aoW9BCzfwOrHuuGxAf2da1F35cKiBvUxlBhw61nNYFiaSmFB4rgw8By2bX8TVudP8cjqzKlO8s0nURPNbOwX7BLODp8We5lIDa5fdE2Oi6C6HyuWTXjepZW+PJZZyfJfmPdNtLQ2iEbkE/jbJ3+lDCYkD+j03+Dbd1T8ewU2rFikpHmF5JNo+C1Y7cHzHrs4OTuwtu4qw0Gvpq78m8i3PFmXYNH85A8mqTDn9QPGDFFEPImIqLLNkjsYUR7sPkTGdU+UNUvZ5v+Nn0HfjnWoa14LV6f8TKg8LNZbsevIKURCL8Hr+Kpo+N6H1Y12bPKfLLpyHI8dxo5VNjSvvQ+d/UU0cLQuhPHLbV704w60/agJC6b96mIVRWIQ4wZlIbmE8XjTNcq2ZTBd5bEAJc3/hK+gscUuUv4ketpWoCbx5HQOrqxbK/YP2LzbsL72CmVbVQXkk2UBmna9hbHIEez3OmDt74RrdSMaNu3FqRn3Nob5HOmJJboLTfNmT9Ug9fZClsqKJxERFY9Xe5r1Sva6ZkGvB6riGO3fjXs6REPX5saecFRTcf8cEd86ZbtSmYfapg3YtvdDUbkOwG37PXpcj+CVrKl/8nEO/T/3oENuiLh7EI5eTFcGxwfhsxfyrqL6KrPcqHkIPzB47d68YqpX2JO6bCavhResuP2UvjyWSynzX3EhjGce3YOYOBeekRt+ymr53PAdOIgX25Zr8rVC8inFgupaG+7athfRsUEE3HbEejzYqnQvmbryb6KI8lT6NCo99Sl06kl8UddxIiKqZGzwzhpyX6VmfGnCCt0lxE5+hC9tuBlLLpfcVV+jjH2E934z0ZybuVRjYd1i8d8ojr/3cVY6x2Pv453j+lfl0q9T2ls3obXBOkUnlVy5/gu4WleIfxdZsUu9+rcCra51aND1+8xf+lVm2Laj6weNxpX16hrULRO1594gXn//M2WlRvy3eOeFgyItta+9FsOCeY23oFUcKnb8Q/ym6Iq63D1gCZaJfxnuJx5D+J0BEV6dkpfHo3j56HCi0VRSJcv/tHj0JA6LBrR8Lrjkhp/agD7yOJz/qUHXX71S8slA9VKsdm1I9C1NNcKnrPybSZenfa9/lN8PA2qYDdNI3GvC/4TjBi8G5Goox2MRfHj2ovJXAS6dxsnT+jDIXX3eRm/GjwTqWwbG13EiIrr8XC5NoopgqV2Dn37tdTwzYFBZUsRj72L3a4vx0/W1syRztZXVf0I4Jg8iIipSQ58UUFFRKzhvYvuqreg6PKT5rtq39m60951T1pm5AktavgenNYb+7Q/i0eApZT9iH4efwKYGOzqyXvvUPF1691h6MCm5X6T/YWwuSR/eOEb7HkKLrs9uPDaAN98dFP8qps+xkHoSMoh3j55W4ir3t+yD37M1/z6c8SG8siP5KrO3axMazPr6WRajZfOaVD49IWrK6bgcx17PfVjrPwmr83toWaJ/7bVAamOmvw2rtjyJw9qBhNQ+qy0PoW9U1zjSsSxpxmZnvdiPF9sePaDkr5xGh9C16TY0y0/2s5SwPKoD8ri2wpMqj8m8f83fLspEn9hjkUqV/xrJho7uXMilEvJptE+EUddnV25kv/kuToi9pxpiU1n+DWmvby5s6TqkySM5rfoRFGVqZYsfQ+pqbZi3daYH5BJ5c7jrL9HQvFOc9wZSDeU9ePRnISVdxHV9YB8831+Htp6Tic0KIvePtv2VJp9EHgUfSV5jrWuwuWWxcs9Tf0jJHc9JnTtERDS7SDS7JKbY2Kybs1KmzMnqeGxmz8MrL/qpKoy+o9km9xQXCs3UI8ZLHlObJGjmINUtVkeH9IzR3JzqNDxZ37FKN9tuTkxzlDHtSs6pRIymaUqvyz6G2C5jrlsThsfUzAuatTRINtu14r8TT3eSnjbFaNHHfYJ8KnhKHeMpTmTpaaR0x1CXvKYlEWmUmk9Z/32H5H3GZE7PKSiP8pI+rsm0PyrD6YIKz/+Jz8WL0khgi0l47ZLbF5BC6lyuilmfT2raGn1fPzXXFJZ/Y5qphEyWrDQaOyH5lHmcM5d6ydGxM5nmWXmUo2zZ2iSvwXXULJ6p9bYt4v5mEo7U/MeqIuJJREQViw3eWUlu3L4kebU3f5tb8h0I6xrB00GtgGVWLjKWrIqbqBxF3tbEJ7MCM3ElW2WQLvK+vC9IB8LR7EaAKeXHg1QlXFTUEz8wqI2K7EbgeDQsBbyOdEVfzo9QRDqfCPtkG7yySea56TFFxTAc0OzXKtncPtEo+Z1pXPVS+WO4GDXA9OkrFrlRsv+IFDGYP3pSFf6xiBTa781sCCWO9aYUzvuHIbl8hiRfopIu70NOo57E95NhM2lklqw86vPIKA7FNHhlheX/ROfi+EhAcpo1/tQla35mYVbnk3zcI9J+7fmfaNwfNAn7FJZ/Q0bhFdcbh1faHzAOg5w/vZrt5W0DctqYliuZXLZ6Mq+jvpDY//8qqGxlrD8vyokv+eNFYp/iGrjHNI9yxHNG3CuJiGiqVMn/J24CREREk3AOfe23obnzIhzdv8TPtv55Zp9deTTzB5xo7jgh2i59eMu5dJZ0uyBT8uvcS5vRCQ9Cpx4ry6jH8SE/bpfnRJZH035rEvO4ExHRZYu3DiIiKrv4787gt+PyvyaaV5eIiIiodFjnICKiEvgKlq+/G7aMOXjTy5yam3BvZy+szh34L7YyzqtLREREpMEGLxERlYAF1Q1bcTByBAGfWzR8taywuZ9BIBTBkG8NFvDOU1mWLcFCs9HZiYiIphn78BIREREREVFF4k+yREREREREVJHY4CUiIiIiIqKKxAYvERERERERVSQ2eImIiIiIiKgiscFLREREREREFYkNXiIiIiIiIqpIbPASERERERFRRWKDl4iIiIiIiCoSG7xERERERERUkdjgJSIiIiIioorEBi8RERERERFVJDZ4iYiIiIiIqCKxwUtERFRq8VPwt9SgquZ+BM9cUlYSERHRVGODl2aALzDkX4+qqhq0+E8hrqwlLaYR0cxzDn3tjeK8bER73zllncJSi/VPdsCB3bj/F0cxqqwmvcv42nZhCIe7NqKmqkrEvwo1G/fi1AVe3YmISo0NXioxtQKYvIFrl5qNXXi1bwgXlC2JqNLFMdq3I1mhb/FjqNLq8vFzGP4gKv4RxQfD53SNNQuql/5n7HpqC9DZjWcGPlPWz3Lqk+uq76KrUuI0HeKfILh1LezbexBTVsV63sSvo5cQH/KjRT5nVj6BgUprALP8lFn6B6SVXcdZ3yJSsMFLpZWqAGaL9WzHuua12OI/yYsw0YyR4ykl5WkFNqxYZHBDnYsFq7fjKecn2L4jWHkNfipa/HQIT4t7IaxbEBi5CEmSMB7twHdq5ipbzFKjfWivEY31mh3oG51NBZ7XQaJKxgYvlYfVg9D58cRNPLmcRyTggQ0n0fPAL9HLPm1ElwEL5jXtQlS+Bhxyorai7jhxXHj/LezrBWzebVhfe4WyXsfyDazxnaic+FuWwnkoKq7pb2Bbw9XKSiqWtXUNblmQbORarNfi2moLLLVOHJLPmSM/RoP4u6Kw/JTZFah1viLSN4oj25ajWllLdLljg5emyDzUrmnDg+4GIPY/cCzCHm1ENIvFf4vev/ej37YdXT9oZMWSChDHhZHTOKH8RURE5cUGL02haiysW6z8uxCXEBt4A/72FqT7BC/Dxq4gBmJmT4rl7wTRtXGZZvtDGLrwb0r/lvXwD32hbCuk+hXp1ieo/RBNBlWJxzAQ7MJG+TWuxLFqsLL9Wbw2EMvaVu2bVdPeh9ELpxBU4zTZkVwLCAMwiqE+P9pXyvFVt92XIy3TMsKvP+bKduxNHU8c4/ATJp8ZkPf12rOaMImlZiO6ggOIGXwp1cfNsF+o+mqampcTD4pjur+801U9RvJ1uHhsAMHUYDS69M0YqGbitM/cl7y0oN3/hsF3coVB7kP/BA4PaX9oUrf/Gpo7B8TfA+hs/ppyDF1aiTD3+duxUhuGvccN80Yvo8wo62SF5aFKNBSG+jKvBWZlS593cnk6PIQL6rmuO25h4ZGf7gbxd299B4Hntxg/hZPTLPii5hqkhOHVfnEdyiPhVEb7SZSBvoz95A6/YHqNK/D6arKfjHwu1bUtz7hPzKDcmJ5HhaVHRrzNypyyrSy5/Rxc1dyR6Lsb62zGVYljpM8547zUnt//IuITTF0va1xBnEl8UcmbxOvEX+jugdpzVk6PQyaf6cn3i9fwasY1SL5u+dGnvZ6ox76qGZ2JiHWg+ao5yvaasmJaDmVFlkXD+Kr3fMNIaRRwHZTlfU8Qm+ZxTuR33uSZBwlqfPRhL/T+QFRhJJqFzkuR0EuS11EvyVmYWGxuyXcgLEXHlU2my/ig5LNbJVg9Uui8PjCfSiF3gwjvOskX+VxZJ/tcivjWifVWye4blDK/dV4a9DklqxpP/WJ1Sr7B88q2qotSNLRTshltb2uTvG67+HeD5A59qmwvqOHOCptsXDof8iTCYHWHRIg0xk5IPm0+ZCz1kjMwnBGf8YhPsovPrI6dUkfG93ThyZIjjQoKw0VpJLDFOD3tPimizzId8/Cryx2S99gJKeSR09jgs/AflD1p5Ay/fKw90uBYZsDUcBiHWS1n6TTNvb1J2haUruo+6iVHx07JYTX4jq1bOhZ5W/LY5HKW/VlYF0e53I0N7jHel7xYt0iBkYvKtrI8wpDxHXV7g+20aTE+LAWcRulgdL5mM0v7QvNQNj4SkJyG6aE7b8dHTMqgVbK5H5Pcch7orlHFhMdU6nqiP35ysToD0shECScrZD85r2Fm8Svi+mpyHHX/Jbu2lSoNc90PxJJ5TS88PczjrS6Z14pUPmQt6fgb51WO81sty2qaWR1SR4fDIB6i/Hv/u6g/GKWH/NkxaUw5WlKua4RYtNeTnPmlKSum5XQSZdE0vvmUkzyvg7Iy3O8n3qaAPEgwOZ9ylR/TfRFVDjZ4Zxu5IvegR/L2RnQ3JlE5FpVpr9srhaLTeMFK3YB0Dd7xqBTe4xY32Vw3Vf0FWsQp3J28MYsbWkacxwalQKLhKj7TNxbOhyR34mJul9yBQeU7otIT7klWdBMXd10lzPQmLDNr8P5BCnvvSB5nzzHNjw2aY5lVqpU4dR+LJuI7Hj0tnc5q8GiZpVGBYVDTJqPyIP+A4pPczj0GFf1MmZU1Tfpq8yOxiJtq99FkeLSNj6zGhBp++YbfLfVG1DDJ5Tmg5Fd2mTGuEKoMGie58tfws0LzVlcpsXmkQCIu2ngon2Xke6/SANbnqzB2TPLKn9nc0p5wcvuE1LmkL4/6MKS/Nx49KnUrlamsH21yNuY0ZV/7w8NYRAr5PJJTH2YDZnlVcB6m1omy5TuhlAc5fUOSz92mybt0mNP5IK9Op1syH0zOzbzDk4Ncpu5wSt79b0rh1PVYhDX1A4bRdcZAQfsxu0bIjD4T+ynm+mpyLmVcG0pxbStVGhreD+RwhaWA1yFdmzofikuPjHhrrxeivB3rVhph+vuhOJbpj6iCcVnMPL+tjqekY4l0EdekyHAyrKm8kbeRf9wJSJFEWMU1PuBJl33991MNYH2aysd0Sg7vC9IB7TUo1fAzKGupe4w+zgrD8jPZsiiHXY5vj1JWRJyOPaWUkzzP2QnP8fLc7yfeptA8MDmfdOUn//sDUWVgg3dWkS+4W42fkqnkSrLjSYOnRVMk4wZksBhWJs0u0OoNyOTJYOrJk/YGpVYkjBrW8oVdbWDobmqGN2GVSeUkcWM3uOEnqHHKPE765maXPKERg++ZMUmjQsOgVkYM82FiucKf/kzbIFGYVYLU9YZPOMU+1Sd6k26cmJUxk30VnLfqOjkuO3U/Omk+y3pKYVbxVdebVOrV8pqRLrnCkCvNclX00ueTcVpMzOy4heehum6ihk6u64amcj/pMlUMo7JTDHU/mfliGgfD61uudBIMr6+CybUydexSXdtMFbJ9eluj+0Gm4tIjZ7xN7ytm532ScT6qcRHrDc7vhNTxRHw9vZpGmZD6TG7s6t+aKbx8m5Y1s2u9qixl0SC+BZerCdKg4HuCJo1ynBPFnzea7xqWE31Yc5cf0/wkqhDswzuLxIeCePjTO3FfrpENqxtx38ZzePiVoaz+JDNCrwt1zT9Fn1F/HL3Rj3Bo34C4D6zBnTcYxNnyddxy9ypYM+bA/FeED/Uihhosv3Fx1kAyFusNuGV5jfLXZMQxGn4H+2IxEaXrMCfVr0Zdvow6136xndH8nIJ9A+61LZhkJ/oiwlB9LW66vV7kwwPY7AkW2A9OwyD8lvmLcL2owcG6Chvv+veZaV9dg7pl4sPYaQyfVfNeDb8V9tbbcYNBP0jLgv+Iu1vlgc603yvGFViy4jbYRcnoffnXOJ2K9hc4ffRt9IpSZN9wM5YkgjCZvJXjsgE2q3ZqkbmYv2iJ+ER82no37lo6L7k6wYLqhUuwTPwr9sEwzqZ2ppbj/XDVfVl3fLHMuQ6u3phJuhiFQZM/J05jJO98F+Gra8TtVjkttsITPDWNU4rNQ91NfyZiJ9Jk8yMImvU3U68b1m/ixj/RprVsLqyN38ZyOR2mlcl1YZIsS27GBruIXO/bOHpa07/29K/xslxe7LdhxRJlNOmirq95KMm1rVQuYCTysfjvCrTe+c3cA4tNNj2M4m25Bouul+83HyMyUqozx/j8ziTie++3Yc24QKthaUDrxjuwNON6q46vUZ5yOaFJl0WD+KauuzGciEQned2agvv9lJ03pbw/EM0e5T+3qETkinkIf6yryX3TFllavXAR/phRqZ8GWdMSyXMMhhHwOmDt34nme583HlhFI352GB+oM/LnpLmhpeYBXoy6heUcN/USzg6fFkeeSA2uX3RNmU60IsJg+QZWP9YNjw3o71yLuisXmg64UX75hl82+QqjYWMgPoyjLx8V5fVetN9Vq+TTDMjbHPNZZ7AuwaL5uSq+k2dZ8F089vxO2NCLzrXX4UrTwX7KTZ7T1oPnPXZReDuwtu6qxIBV/tcyBzZLXTeWLcHCaZ3SRR5oJqgbgEetGBeigP1YFmHFhhXiH0fx8tFh5ZxWf9RpgLv9ztTUSEVdX6fcJNMw3/NImB3pMR3kAa76EcwYtK4Kc+pcokyVxsxP++m+J5Q/D4gq3XTWBugyY7E2YM22/4rn5amJev8evv5KmNzdCrtvEOOahn3mEsbjTdco25ZLYWGwWG/FriOnEAm9BK/jq6Lhex9WN9qxyX+ysitxlsVo2bxGpFa6MaA++bK23oLGefrL4UzI23XwRT43OLayRHehKSvcpTYX1qaHcWQsgtB+LxxW0fB1rUJjww/hPzXFo3paFqBp11sYixzB/sSPZ51wrW5Ew6a9ODWTnkrEz6BvxzrUNa+Fq3MSVdKC93MFlrR8D075ibz6o2fqRx07Whq/ktxsNihVGtIkXEKs71GsqluJta5O9CtrL1/TcU9gHhCVAhu8NMXyn5oo9YrNhKxYpj75LssrZEZK+bpUsSYThnmobdqAbXs/FI2HANy236PH9QheyZomopzSr/pOrBRP7OdiwS1r0JpqDKSffLW2fFOkiGoG5O2UleMCVNei6a5t2Bs9j0jAA1vMD9fWVyd8U6P0LCIoNty1bS+iY4MIuO2I9XiwVenGMf2v5sUx2r8b93SIRprNjT3hqKaC/DkivnXKdhMpbj+pbgDKmwxmP+oUdX2dMiVKw9R5NLGZnR7TZPQofn7PTtHIssO95xii42oeSBiP+MTa0pj5aT+N94QpygOiSscG76wh90FsxpcmvNheQuzkR/hSqj/iTKP2qcqD2u+zN4jX3/9MWakR/y3eeeGguAWtwIYVi5TCnO6LdPy9j7PSKh57H+8cN3jFLVcDI/47nPrwjPKHyoJ5jbeIxhMQO/4hfjMtFetShEFuPPwFXK3ya5BT3bhS+6+KBui+t/C+QfjjZ/47Xkj07dL0PRRyNWrisQg+PHtR+Utn3jfRojYGhgZNnnzNhLz9Chpb7KKCZVyOp9c81K52oFV+PXwSjcqi81CreilWuzYk+manKqKp/uIf4b3f6J9Ai+tj+J9w3ODdxJKEJ0F9/VHuK7cJrQ1WUaKKUex+1LIjv8kwiCHDH3WEoq6vU6VUaajeD7SveJuY0ekxPVKvGts3iHvEcl0f2RKa8Wk/ffeEKcsDogrHU2cWsdSuwU+/9jqeGTC4ISjisXex+7XF+Ol6tT/iDHJhCIe7/t+4R57c3XY31i+f4PW61Cuob2L7qq14QtRS1dtMPHYcez33Ya3/JKzO76El1RhKv9LXv/1BPJoaZGcUQ4efwKYGOzr6jXriqBWjAXQ+ujs1qFbyOPfiprYecbPVURtP/W1YteXJzEnbRVz7gs+iveUh9I2W8eZYUBjiGO17CC26PrvyBPRvvjso/lXufs/ZLEuasdlZr4T/H0RDRO0XKhomA/vgued++GP1cG5uzvwBJ9Wo2YNHfxZS+nAq3/n+OrT1nExsli3dGNjX0YV9Zq8zT3veqhUsuRy7sKXrkGaAsXR/rpb2PlGyJ0vzI9E77yfTMv4vGPpnec/n0Nd+t67PrtxoDOHdE+KMmEw/2ULzcLRPpLmuz248hvCb7+KEyNH0Wx6a68a2zvTgVonrz1+ioVl+WmKg6DKlp3ka9O6xdL7J5cb/MDbn3Ye32P2ky07vvi507DN5nbmo6+tUKVUaagar0w26Jl/3XtOeQzM6PaZH+kegX+Fo6hoo96v2w7P5AeP+o6nzaADvhJNpGI/9M/45VyNxRqR9ruugME33hKLygIiySTS7JOY03aybB06mzKXqeGxmzMObGGbfZMmamiXH9AHaOVyNFsPpGcwnsE9P7m4w9YA672nW9+yS29uWmMpEP4VEepoj/XeUpaCpT3IxT6P8w5CeCsNou4kn6J8g/LmmozCciiIpd/iNppuQaeZt1C+2NsmbmLcx1/QS6vYm2wiF5W2OMqxJ9/ynIJFp58c0XjL3lysMQo78SYUhtaj7UKfq0H6mLvWSMzCcfRwd8/gVmIcZ+aZbrFukwIjmOpCao1K/bb3k6NiZnJ8zKx0mUab0TK8lVulm2835T/NU9H4y882o3CUUc301OZdLfm0rVRrmuB/IS0baFJEeueNtNtXNZKYlyhHvHNfZ3NPumO07PU961nKzTbLJ51FWvNV9abfXhMcsjCUsi0m509iI+XVQ+bwM9/uJtyk0D8zycoLyk+v+TVQB+IR3tkkM2tIJ19f/J17YtAzqaH1VK/8WR8e+hb9+7m/QlHO6gjLL1WfK6oB3/5sID/wDnBlTs+SQiO9+iMY83OLKnpLY1xFEDj5oEN95WOp8Av293RAV2yR5+0AYA89twfL5/05ZqVO9HG0vHsAet7j9JFhhc/sQiuxHx51/irnib33/ocQAUAf7lcF8lJWyVFx3ln1QofzDYMG8pp+gPzFYVX1yG5nNDd8BkTbPrsGCabgipMLvc0M0NlKsDi/2h/pxcNetBq9xWVDdsAUvhns05cIOty8kysSjuLPuKvG3yRNr9Zd6WY6BfKY/b+XBoh7EQXWAJmWtLJE2cp51NGW+plokS+1d+LuM8+V2bLi5RqTyNWh68EVdGsjnxTM4EO7Fs2u+IbYpVoF5OM+GB/v1aSFvf1DkRTfWLNBcB6rr4dwdQK9mWznNAiLMz/3o25ivrMs0iTKll7iWHEyOSq+sSpxnoT688uB3lBV5MN1PP9562pWYzsqY+iaDzOB1ZlVR19cpUnTc9eT7wT9gIBzIvO4p5/HBv16RTpuZnB7T4mo0tD2LcEB7/ivnxFu70So/yc1yBWrXP6Y79+7AzTUTpNsMSHvz62DS9NwTiskDItKrklu9yr+JLgPyK5q3obkTcIfenoJRdokub/EhP26Xp8+w+0QFzZmaFmfayK9GL21GJzwInXpsCka5JiIiounEOz0REZXJJcROvocT4l/W6xdhPu84RERENMVY/SAiotKKn4K/pQZVVf8OC9fuRizXa7VEREREZcQGL12mpn5EYqLLhrYvv9y/rfdFPDjTug9MZoRpIiIimjXYh5eIiIiIiIgqEn/eJiIiIiIioorEBi8RERERERFVJDZ4iYiIiIiIqCKxwUtEREREREQViQ1eIiIiIiIiqkhs8BIREREREVFFYoOXiIiIiIiIKhIbvERERERERFSR2OAlIiIiIiKiisQGLxEREREREVUkNniJiIiIiIioIrHBS0RERERERBWJDV6iinAJZ4L3o6aqBi3+U4gra4lmrfgnCLqWoapqPfxDXygriYiIiArDBi/RTDXah/aaKlS1+DE0UQt29Ch+cf9uxGzbsWt9LU/sgnyBIf960bDijwUzRxyj/U/jfv/vYfNuw/raK5T1VHbxU/C31EzTDw0i3/t2zIof7uJDfrRU5Xl9LprJtWla84iIaPZhvZhK7Bz62hvFjVhUBGpc8J8aVdbrqI25mh3oG2UTI6cTpzFyIVcafYaBZ7rRiS0IPL8FDdU8rWk6pCvnK7uO44KytigXwnjm0T2A8yk837Yc1crqipJqtHwXXQOfKSspKYYTkejkypCpOC4M9SPob8dK+T6VWESZbfejb8jkfkVERLMaa8ZUWqMf4dC+geS/Y3484H0HZ9ieLav4UBA7tn8i2gbbsXrBXGUt0QxS0A9couH8She2R9bgqUe+iwW8S1HJyF0//gtq61ZirasT/cpauYHd3+lCc933+eMDEVEFYlWCysO6Go7v14s27y78ov+cspLKwVLrxCHpBHxrvsETmqbRFah1vgJJiuLItsk8lVX2E30Kayr5BxzLUjgPRUV6vYFtDVcrK6m84vhfn32OW70v4EA4inFJEuk/jrFIAG6bVXz+JrbvCJbxFWUiIpoOrB9TmdTiP927ETYMoPPRfRjI+UouERFRuck/pviwd9v38Z8arEoFyILq2tV4sGu7uF8JvW/j6Gn2iyUiqiRs8FKZzMHV/2Et/spZD/T78fe9vy1sAJJ4DAPBLmyUX4NM9bF6Fq8NxPLcj9qfsBHtfefE7gYQ7NqIGqXPVs3GLgQN96X073pVe2yxrGyHv2/IoE+ZvH0f/O0tGdvuzTucgj6uNRvRddjoWJn0caqqWoaNXUEMxC4pWyjUvoKJ10m/QGwgiK6N8ui3Ob6TMIqhvtfwasYxcvV1k7f3o32l3C9R3Xafwb7z3U4ooByog8jUtPdh9MIpBNU8qbkfwTNG8cvDhSH0BV/UpJe8tKDd34ehgn7EMSgnif28oYt3IWk+VWVclk/4DQbYUcveVc3ojIm/Yx1ovmqO8n39gDuXdGVTLPK5EBxALM+kzigD+rKTcV6KdD78hMlnOvmWgVSf3GR+ZPoMA13fzfzMcOChXHmqO09EuA6bfZahmPw2l33dMSrHE8sur0/g8IR9aA3KiByP1/IvI8Ys+D+uvArFv0+gK0+5ym3Jrinm5LR9LaOPcq7rwUTXEbN8KeA6TkQ03SSahc5LkdBLktdRL8lZmFhsbsl3ICxFx5VNpsv5kOS2ivBYPVLo/B+lsXC3ZEuEr1sKj2kCl7GdLtBjJySfNm4ZS73kDAxLE0fzcyniW5fY3uF9UnLbrLr9yMsdkjf8B2X7pPGIT7Jnbacu2cceHwlITjkeWduuk3yRz5WtchgfkUIeu8H3rZKtrU1yGKbRuDQ2uCf5Wdb3xGLdIgVGLirbCuODks8u4m91SN5n3Mn80C/6/Emln8G28qI/hnRRGglskaxG29p9UiS163y3EwosB2reWR07pY6M7zVI7tCnylZG1LhaJbtvML1PNd1S+8lcrM6ANKINgKmLUjS00zjdxWJ1h8QZLSs0zaemjBcefk065kxD7TlyXhr0OY3LhVjyTWvzMqAuIj2OnTA557LTqrAyIM5Lw+tden3G9ql9a9NBk6cdO43PcbHvY5G3JY9Rfmedx+k0ydo2sRjkt2G4ZAVed3IYj/Yahx92qc39/UQ5SJcrVWnKiJlUOhndkwyktre1SV63yTXce0waU7ZPKPiaMtG1qcA8ksuV70RmmPIpc0Vf74mIZgY2eGcbuYH0oEfy9kZ0Ny1xoxOVIK/bK4Wi+VU6yiKrIfupFHI3iBuh7oZt2uD9gxT23iG2t0vuPcc0DXhR6Q73JCv1eVVI1Ju4chO2uaU94Wjy+ONR6Vi3I3mz1t2c5UrMHQ6vtD/jxwNNRStjezVu2kqEnA8hyeduy6PBOy6SwZPcr80jBSJK9U6EL7xH0zDVx1dNO22cZJrvZVQWMypZohLm7pHCShkZjx6VuhMNA13+JNLPKRpSL0gHtMdINULN8tMp+QbVI8s/zPgkt3NPOs3y3a6IcpBRsReN++5jyXCPR09Lp3WNgEw5KpV3OCXv/jdT6SVWaiqUef6oocZZjktgMHXejkfDUsDrkK7NaDAWkOZTUsaFgsJvkI6yVL4bnbvqeZBZNmXj0WPSnkRjYqIfLZIyyoA2vGODUiCjUSLO2e6jyfhrf3TSx73gMqCWW01jZ+yY5E2UV5MfogwbvEo4U9cF+boSyPxRI6OMqw3I7LQvOL/NGlNqPPK97phK3xNs7oAUUc7NdF4n45e5LxH/xI8Gky8jxtLpnl8cxHF11xtvQE1fcY069pRx+Si4PJmcUxPlkVy+vW+n0lbO70jAo9xT9D/smF9H0vcHXbrkfR0nIpoZ2OCdVeTK1NbspxBa8g3P8WTWr/xTxqBim3oKqq3wmVWAE+sNKswJ6o05n4qNpgLj2CMN6tPDrMJgxnB7teKW5z6yqN83eLKkfaqWkUZq48DkmGo4td9Jhd3o133xsVpx01d8TRhur+bnRPsoaLvCykG6AmqXPKERg++ZMalUmipk+/S2WU97CmCcR1NRxgsJf450MTvfE5TzwKRMqHHPpyGSqwykPzM4D3KGz0g+cZWvd2PKkzCD7XKmt/i+bafux0vNZxkNDVn6x7N8G2ym5cNwfRHXHTNq+hg8jdb++JAZj9KVESPpN3WMrsXGUuUpKy9kOcqHIbPtTdbnzCOzczX9VDYznXKVOU08tWmv5uFE13EiohmCfXhnEXn6mYc/vRP35RrRs7oR9208h4dfGTLujzYNLAua8KO2O4BYEH/3jx/k6DMWx2j4HeyLxdDrug5zlD5E6eXLqHPtF9tF8cHwuTzjZ8Wy79yEWv3ctJZFWLFhhfjHUbx8dLjItJqHupv+TBxhP1ybH0Gw0Dkc1SmcrN/EjX8yT1mpmgtr47exXNROMv0rwod6EZOPWfdlXfqIZc51cPXGRFqfxvBZfV+q6/CdFUuyRs+1LLkZG+ziQJMZrKX6Wtx0e73YxwPY7Ama90XLa7tJlgP7BtxrWzBDBii4gJHIx+K/K9B65zfLNJ9sOcv4FIRfPQ96Xaibo8/rKsypc6FXbBb7YBhn842EQRmwzF+E6+XzyboKG+/695lxqa5B3TLxoeF5U6B5K/BfntoCa2w37ndvgfv+3YjZtmPX+toCyqQV9tYNsFm1vUrnYv6iJeIT8Wnr3bhrqfaaYUH1wiVYJv5VUDrlbTLXHS313BZxWP4t/ElWmbWi8ZaGRBwzlKOMqOKf4MBDD8Mfs8LmfQg/KHTE7GV/jhW1+uv3FViy4jbYRYr1vvxrnC55fhhR88jsXJ2LBbesQatczA3TyajMac4b7Xzw+V7viYhmiJlRJ6Q8fIHTR0P4Y13NBJVOueKzCH+csptsPq5Gw31tcFtj6N/ehVcyBqrRuoSzw6fFDXsiNbh+0TXlK7yJQUWe1QzGIRa1QpdBVCBWe/C8xw70d2Bt3VUFDaASPzuMD+RdLluChfqKn5n4OQx/EFX+yMG6BIvmT3ZKF2WwG93gJ2rlMoPlG1j9WDc8NpEUnWtRd+VC48Gl8tpuhpSDBHlglqBusCa1wZ2HfPMrpYA0n4x8y3jB4S9c6jyYgPX6RZg/LXesQsuAfF3Yjqec9Yi92IMXY3fA27UJDfme4+WQ9zXNRMmuO+q5bcWyCe9laeUrI6M4tecR3O8/CaujA//wg8by/KiTYZLXFDOFnKvaxmsx8r3eExHNENN4B6bLyryb4XpsnfjHfjzg+7W45edihd03qMyRaLSE8XjTNcq2xUo/LdGKxw5jxyobmtfeh87+PGpYlgVo2vUWxiJHsN/rgLW/E67VjWjYtBenyvqr9zr4Ip8bpI2yRHehaV6ep7flGiy6vkb5Q3UJsb5HsapuJda6OtGvrM3FYr0Vu46cQiT0EryOr4qK0H1Y3WjHJlGZ1D7Vz3e7qSkHOcTPoG/HOtQ1r4Wrs6TNTROFp3luJSrjU8XuQ2TcKJ+TS/TxJuifo5VdsWXg336Hjz/+vfLHJxj85Py0NQRKm98lvO4Uo6RlRDR2/T9Gk8sPOPagb3crlpbwR4nUk1GtKb+mlE/+13EiounHBi9NkStQu34bvDYrYp2/xKun/k1Zr6VW0GM4EYmW+aapPmnQPiU8h/6fe9AhWho2dw/C0YvpytT4IHzya7+G5Hkcbbhr215ExwYRcNsR6/Fg6wSvlRu+KjYRw8bpJKlPBrRPZ0aP4uf37BSNLjvce44hqqlkjkd8Yq2Zeaht2oBtez/EWCQAt+336HE9YvBUP9d2U1kOzMQx2r8b93SISqnNjT3hqKbh/TkiPvnHmzwUkl9Fp7mZEpTxcpQ3HcOGwYxQbBn4DAO/fATb+78KR8dOOKwn4b/fiwPFTo01KcVe03RS5eBjREYmc0YWd24Xda3MKd3Yjdm6cbDEjV2Z+lQ6/dS5RNcUM4Wcq4W8VZRTvtd7IqLpVdorPJWR3CeoGV+asJJwCbGTH+FLG27GkpmWu9XX4z//1RpR2dmPB57cjxFldZoF8xpvSfYxOv4hflOiJ6SXIv8/nNbvKz6Moy8fFf9YjLqFyktsqVfCVqDVtQ4Nur5MealeitWuDYm+WxNW6FL9Bj/Ce7/RP/MW+Rj+JxzPeiBTjYV1i8V/j2Lf6x8V2Bg8j8jJ4azvxE//Gi/LrzZqKkGpVwjtG+BqXQ5rwWVJ/hHgL8R35T6kuSrJRtuVpxwUJv3qpb11E1obrEVeLNP5NVE/2smkefnKeP7hL5p6HvQG8fr7nykrZ4LiyoA81sKO7W/C6vwpdrnb8Tfymy1yf95fHJ3gzZYyKMU1LeEraGyxi5SI4vh7Hxd43dHS9DU2OrfjMYTfGRBprjPvm2hpbTC5VhZKfpPiCfww0djdidCLWyb3uvml32Lkd/ofM+QuSG+jV6RY+tXtUl1TzEx0b7iEM+8EsS8mjl/y+kG+13sioulR2ustlZWldg1++rXX8cyAeaUwHnsXu19bjJ8WNEDKVJH7tt2Px+xWpW+bslpLrdj0t2HVliczJ7xX+6G1PIS+0Xyr3rFEHyObdl8XTiHo2Zrov2Z1fg8tS65Irk/9Qj6Id4+eVioMcp/KPviV7TOM9omw6PrsyhW2N9/FiYyKjgnLYrRsln8AeBPbt3WmB70S8Tzc9ZdoaJaf9uldgSUt34Mz0R/ahS1dhzQDhmj6f7b4MZSVRL3oXLtO8x15+yA8mx8Qn9TDubk5VQlKP1H5FY6m8kDue+ZXtteKi6R4CC26Plzx2ADefHdQ/EttcOW7nVDyclAozZOod4+l01g+tv9hbM67v51m8BrXVniCp1IVUTner4m8amnvSzSECktzrTKW8QLCn1Pqx50BvBNO5n089s/4ZzldtefBqq3oOjykqayr/R2/ixb/qVSZmRpFlAF5AKTHnxB5dQfaftSEBRbtmy3dOa/dZVFwfptRf4TKfd3JpyxYljRjs7NenNtebHv0gOZadAhdm25Ds/wENIva4M5VRu5Ge985ZZ0ZubHbge/L19ZEY9eDpqJ/BFD070Rzw19qwiTCE3wkWT6sa7C5ZbFyLy7VNcWM7t7wxK8y7ksDex/EPWt3I5YRpmIUcB0nIpopJJpdEtM2bNbNTSpT5sBzPDbD5uHVU+dTFNvIi8F26TkllW30S15Th6Snc7C1tZlMpp89tUdG2DKWBslmu1b8VzMNhBpXo+2zJuo3kZpjVb8PeR7FJ03mHdZMWWSyZEw7kZrCwi61ub+fmJYia/usaW3U+USzt8XNNknU3zVTUqSnRDHa3uoMSCMFbZdUaDkwnD4jLyZTf6TmtNQdV2x3s+3mxPQfmVOImNHMeWqwpPOqkDSXTUEZT8g3/CbpmKCZ+iS1aI6jnQvXcClwHl6jMpDr2mQ2RU9BZUCd9kU/LYwmzbVT8RgeM1ca5p56yDjuReS3WVoUet0xJcKUmndWt8jz2T5jMqdvKcpIKm5G39cseVxD1PS2OnZKHWbXcP30VwVfU0zKQ9F5ZDRlW64yJ2SdN4Vdx4mIZgI+4Z1tEoMkdcL19f+JFzYtQ2qUx5V/i6Nj38JfP/c3k//FejLUJzmmLKi+YT0elEc2lhn0JUoMhnGwH6H9XohKUZrVAe/+NxEe2FnQwChz/9SFv+sPwedWjglrsj/bwD/AqZ/ao2ELXgwH4HXUK+vkbX0IRf4bnm69UVmnmGfDg/3KYFXKKlGhgNt3UOy7G2sW5JEP1fVw7g4g5HNDVFKSEv27evFcmx118i6y0mgurE0P4qA6UJayVmZ1eLE/cAT9D9oMBm+5Cn/qegL9IR9EQ1pZl+wvOvDcRl0ftqvR0PYswgFtHshxCyHy1m60ZuSxBfOafiL2Kw9eoqabIOLhOxDGwLNrsCCx63y3Syp1OShY9XK0vXgQAW0ay2EN9eOtp12J1zLzMw9Lnf+AgYxyJSjxOPjXK5S8KiTNM5WtjCfkG/5c5Cedj6FXk5ZWxx24uUY5RxLXtf3KADiaY6AeDu8LCIRexIPlHKDMTCFlYPQofiFPQWRdg7/6z9dr3u6Qr3linfJUc8eUThlXTH6bmeC6I5/DHfkMGiXCtLQVuw3L67No+06dfKTsN2QmKCMHwgfRMR1lZP638SODa7gvFMBukecZcSjZNcWMmkfatJXJafSSyPP92NU02SnbCruOExHNBFVyq1f5N1EF+QJDfgfqXEdh9/XhLefSSd7kZ7H4Kfhvb4KrdwV8kR44a5XXW2mWYxknIiIimgjrR0RERERERFSR2OAlIiIiIiKiisQGLxEREREREVUk9uElIiIiIiKiisQnvERERERERFSR2OAlIiIiIiKiisQGLxEREREREVUkNniJiIiIiIioIrHBS0RERERERBWJDV4iIiIiIiKqSGzwEhERERERUUVig5eIiIiIiIgqEhu8REREREREVJHY4CUiIiIiIqKKxAYvERERERERVSQ2eImIiIiIiKgiscFLREREREREFYkNXiIiIiIiIqpIbPASXabiZ4Jw1VShqsWPobiykoiIiIiogrDBS2X0BYb861FVVYMW/ymUrU0VPwV/S404znr4h75QVorVQ360VLFBZ+wc+n+xC/7YHfDuWoNaXgmIiIiIqAKxmjvah3b5KZfcMJpwSTfcUo2plU9g4AJbUzSbxHFhYB8e7bwIZ2A32hquVtZXivQPLSu7juOCspaIiIiILj9s8BJdbuJDeGWHFxHnT/HI6m/wIkBEREREFYt13XlNeDwqQZLUZRznQx5Y5c/sPkTGtZ9Fcci5NJFollonDsnrjvwYDdVMRppFLEvhPBRF1LcGCyqy6F6BWucrifP1yLblqFbWEhEREdHlhy01IiIiIiIiqkhT1uCNx45jb3tLqj9szcYncHhoVPl09jEeEEntO9iI9r5/wYWhINpXyoMpifi6gjij7eobj2Eg2IWNqf7DNVjZ/ixeG4hlDe6kHqumvQ+jF04hqKZjzf0InrmkbGVkgkGj1P7LukGdMo6nD2fNRnQdHiquX+SFIRzu2oiaRHzlMtCFoEF8RQjEpv0IvqpNH7GsbIe/r8hjZ7mE2MAb8GvKZFXVMmzsCmIgZpCm6sBYNTvQN/qF+G4QXRuXab53CEOT7cs94TEMwpbxnc8wFNyBlcr2ruAnmWmbVebM8yD/MienozacYpHz6bUBxEySIx4bQDCjHCSvBclj6stqMWU413dGMdTnT52XyfNun3GeZ7mEM8H7RbjZN5iIiIho1pDKblwaG9wjOayQ5MNlLnbJExoRW8wk49L5kEeyyuGz+6SISeDGIz7JnrXN51LEt07Eq15ydOzMjLPVI4XOKxuOnZB8jvr0ZxlLveQMDGekiXosq2On1JHxvQbJHfpU2cqIGh6rZPcNZqfz+ZDklsOoDZtgfjx1yQ6jsfTxbe7HJLfNqtuPvNwhecN/ULZPSqWt4WJw7PFByWeX971O8kU+V1aa5ZHsvDTocybz2GixOiXf4HllW4V6DKtD6uhwGH7X6gxIIxMnijnNMbzPuCWbwTFg65bCY5qD5AiX1R0SMVWUpczlTkej9BiP9koew3Jgl9zetkScM8JdVBk2+85FaSSwxTi8Oc71tE+lkLuhgO2JiIiIaLqV/wmvPEDOVg96YsrfGXrRcc9u9I+aPAqatU6ix7MTh299CseiFyEq2oj2b8byeXJyf4aBX/4Erp4auPccQzTVR1hsE+6B2/Z7+O9/2jBNYj074Tl8I7qPRSHq2hiPvoz7ln9F+bT0EsfThnM8imPdDlhF/MzCaCyG/s4HsO//akMgnAx7el9vYvuOYNa0QV9yeLH/QFiTPuchGlfJYz8dwumii4w8QrEPP3T5EbM64O2NYCyxf7GMDSLgFs28mB+uH/qMR9+O9cDjOYw6dw/Cat4eewoO0YqK+XfhF/3nlA0nQRxj+337gNQx5Lw+im5HPdDvxY5XhrKfdCbC9R5u7T6q5NXv0H9fI+YlPjyHvkfvLXGZU9PxLU1aJPc7Hj2GPSIds9PjHPp/7kFHP2BzBxAZG9dsD3Ru74b4qHxGj+IX9+8W+e6Eb/C8Et7ziIR8cC+co2yUyzzU3fRnogxaYbu1HjXsEEJEREQ045W9yhY//Wu83GvY2k2K9eJQ+F+VPyqIbSee/9lfYrl1rvhjLqy130gOnjP6Hl7pfg9235Po2Lgc1lQOiG0a1sHVuiJHmtjheX4Xti63JgfOsl6La8s6YJY4XsifDqfFiuVbPXjMLrfuTmP4bD6vgSZZHXvQt7sNaxqSYc/YV+/bOHo6PX+uPCDYG3u34a7/1KBJn3lYeu92w+0L8684/soLomF1B7wHn8S2W2vTgxpVL8WajmcQcMoNyxfwynGjPBCNHc9evNjRigY1b5e78DePrRP/juKD4XPZjdGC1cPh68XBx9VjyMn159j6Nz8WORJD78u/Nmjwy+Hqxs+2/rmSV/8naq9NNncx+hEO7YuWuMwp6Wh/DE+n0iLJYl2OVtcG8c0B7Dv0EVIdFxLhGBDnxnZ0PbgatUrZlbff2OFHyGNP/F12y/4cK2qVtBHlqrbJicd9G/OYi3guFqx5ClEOhkVEREQ0a0xYxZucOC6MnMYJ5S9jpWokzCRW2Fs3wKZpBCTFMRp+B/tiotHiug5z1D6PqeXLqHPtF9uZpIl9A+61LSj/rxQqo+NZrsGi62vEPz5GZCTfXoxWLPvOTakGToplEVZsEI0tHMXLR4enpgyojS77Gtx5g8H8s5av45a7V4kQm5XLFWi999uaRqNsLuYvWiK+E8OJSLQEfTuvw3dWLMlqUFmW3IwNpg1+o3DJylTm1HTsdaFujn6fVZhT50Kv2Cz2wTDOJnaqhkOUhuXfwp9klQUrGm9pEGlYRtXX4qbb60WYH8BmT3Dyfa6JiIiIaMbLqseWlgXVC5dgmfKXsRpcv+iaqWvETatLODt8WjSLJnI5pYmJC0PoCz6rGVxILHOugyvX2wJ5iJ8dxgd57aJUjdfpVp4yl286Wq9fhPmJnarhsGJZXc30PB21fAOrH+uGxwb0d65F3ZULTQeKIyIiIqLKUPY2VeqplBmrHS2N5euHOjNZYfcNJvuyGi5hPN50jbJtJVOfjGaKxw5jxyobmtfeh87+yTVwK0rq6XoxylTmsuaqzlyijzcp/YhnBov1Vuw6cgqR0EvwOr4qGr73YXWjHZv8JznqMhEREVEFKv9DREst1j/ZkRjUJ5vcP3ALbInBnC4HpX71dbZTn/ppny5qBzbKHAxJGh+EL9ePJ3mwzF+E6/PaxTQ+iTQTP4fhD6IiaEuwaL7+dXkzxj8qTFYqHU+cxkherwbPpLIv99vdgG17P8RYJJAYtKvH9QheGSq2XzgRERERzVRT0NK0oHrpRjw3kBy5VWV1dKM3sh+7mqawT+q0s2Be4y1oFQ2F2PEP8Zuy9yHM1ci4hNipQZxV/iq3S6d/i9/poxsfxtGXj4p/LEbdQqVpqTbq5D6prnUZgyGVRHUN6paJDOgN4vX3P1NWasR/i3deOChSbAU2rFg0TWXzPCInh7MahakB4JYtwcK8BytTuxXE0LvvLbxfqjI375toaW0QBfkjvPebfObTTndvMCz78RjC7wyIUOqVswyLMNX+RXLQroL6pBMRERHRbDFl9fnESKyPH0q/6rj3x7g1NVLqZURtKPS3YdWWJ3F4SNNYUPuttjyEvpJM1aRpZHQ+jp/1nUn2VRSNi4G9D+L7N91vMl1UqcXQ32FHw6Yn0vG9cApBz9ZEn1yr83toWXJFcn3qtd1BvHv0tNLAiYuk6YNf2X5SLIvRsnmNaEC9ie2rtuKJ4+n+m/HYcez13Ie1/pOZYSpaHKN9O1BTVYWa9r70aMUT6kXn2nXY0nVIGVhJjn8Qns0PiE/q4dzcjCUFnLmWJc3YnBh5OkeZW3k3/AU94fwKGlvsqXTsOjykaYyOYqgvCH/73WjvS09LlA6HF9sePaCJ2yF0bboNzR3yMFd6pSrDcl48hBZdn914bABvvjso/qX50cXUJZwJ3i/yswYru45n/SBBRERERDPP5fNwdca4Bra/7oDHZkWspw32uqvSgzJdWZfst3rifyvbTp6ldg12ee8Q/+pFR/PC5Ci9c2rQeK88z+tjcItwlF89HB07cethTXyvvA5rO0UDx+rEY9tvwYJUSfwKlq+/GzZ5LmPXMlyZSJs5uLKuGa7O38Nmu1bZrlhzsWC1B8/LU+DEetB2U01q5OI5NTfhXjlM8pRSj31XE6ZipQeMSo9WnA872tzfxOHtt6HuyjlK/Ncm+jNbHduw3f71wk7c1GBNOcpc5BsFvCYts2CebUsqHbfb65S8kperUNe8VuRXRNlWYfk67Nu3wWGV52WWB41S43Ybth++ER0d8rzM2UpXhv83TiT67GrzfAXaevL9gWMUkWP/Q+SnCP/hk4jmnZ9ERERENF3Y4M2SfqKUHmG2tBID5xzsR2i/N7Nvs9UB7/43ER7YiaaS9Wu+Gg1tzyK8xy0akQqbG75QPw52iEaH3MYp6BXZYvw7zF/+Q+zuD8GXeq3dKoLhQ6j/CTiXap/0i/Rv2IIXwwF4HfXKOmXbyH/D0603KusmwbIATbv2IxLyZTaWEul/BJGDD6KppK9SW2HfcHMBT2Wvwp+6nkB/RvjscO85hoHnNmJpEXmVu8wdEPnwk8LLXCod5QGg1LyS1cPhfQEHwgfRkTEQlsjbpa2iHLyt2V7eNiDK/NP40fIFyjq9UpRh0UBv+olIU11Y5f0cCGPg2TV5/MAxD3U3/ZnITVEeb61HTeHZQERERERTrEqS3y8motK7cBxdq1Zju/hf+OBWNEzUUI2fgv/2Jrh6V8AX6YGzdrKvVM8m8ivHD2BpcwfgDuHUDBvdmYiIiIhmJz6jICqLSzjT24Pu/hvh7do0cWOXiIiIiIhKjrVwonK48AH+8e/+B271/Qw/aLhaWUlERERERFOJDV6icqhejm1HwtjrrJ9Zc/nOeDNw/mMiIiIimrXYh5eIiIiIiIgqEp/wEhERERERUUVig5eIiIiIiIgqEhu8REREREREVJHY4CUiIiIiIqKKxAYvERERERERVSQ2eImIiIiIiKgiscFLREREREREFYkNXiIiIiIiIqpIbPASERERERFRRWKDl4iIiIiIiCoSG7xURqM45XehpqoKNRv34tSFuLKeiIiIiIio/NjgpTK5hDPBHWhyHcetHTtx62EPfrgrhBjbvERERERENEWqJEH5N1GJXEKsrwPfb34a8B7AwW3X43ywDf9h7bu41feP2O2sR7WyJRERERERUbmwwUslFseFU/uwpeleHL49gP/n2TVYIL9HED+DvgecaO74Erzh57Gt4erk5kRERERERGXCV5qpxCyoXroRe6MSoj6lsZtYvQBNuw5Bkt6YxY3dc+hrb0RV1Xr4h75Q1s0S8VPwt9TMzrDPWHGM9u1ATVUNWvynxF+UjWlUfl9gyL9enNtMYyIiIiNs8FKJqY3CKtOlpr0Po8rWs9PHiIxcUP5NFMOJSBTTUiJSP2R8F10DnykrZ6JpTCMiIiK6rLHBS6UVP4fhD6LKH/lQnwBVQkOYqNTUH5Aa0d53TllHRERERPlig5fKZB18kc8hdxHXL9HHmzBP2YqIJsGyFM5DUXFezeauAkRERETlwwYvERERERERVSQ2eGnaxIf8aKmag6uaOxATf8c6m3GV2te3xY8hZfSV5HbKK88XTiHY3pLcpuZ+BM9cSm6UcAmxgSC6Ni5Lfi4vK9vhf22gwPl/9ftZho1dhzB0IcdOLgyhL/hi5rGrWtDu78v+ntrvsmYH+ka/KOBYoxjq86N9pdxnU962Bivb92Egpk2DQsVF0PsRfLULG2vUcItFTre+ofz6XI72oV373YzFaJAsOX3fgF/Nx8QixztoGJeM/I/HMBDUhLVmI7oO5winfvtEmj2L1wZiBQ3uE48NINi1MfHqvbyfmo1P4PDQRC/gT6Y8qgMRfQ3NnQPi7wF0Nn9N2Y9mcCKzwcgyythnGAruwMrEd5fBFfxEE/dSnTPTkUaqfM8LebvX8KomjMlt/eibMJw68vnub1fSVN2PcbmS0+W1jG3ltOlC0KgM5hxcrsgBwAo4B9RzTXv9TTMZtC/vskZERDRNJJqFzkuR0EuS11EvTymVXGxuyXcgLEXHlU2my/ig5LNbRZjWSb7I58pKY+MRn2RXw69f7D4posRF3c7q2Cl1aOOMBskd+jS5kUiTQZ9TsqY+y1yszoA0klfaXJSioZ2SzWAfsG2R3Inja48rpOJs8B2xZB1b3d7qkDo6HIZhzg7vRWkksMU4fpq0MmWSLznzAPWSMzAsTZhs50OS22r0fXnRl4Pc+QSrU/INnle2TTLPf3UxCefYCclnuH2O7xgYj/ZKHptR/tqlNvf3E3GxukMiZlqTLY+fSxHfOsPvAlbJ7htMht3sfMtRxtJhLdU5M11pJMv3vMiVnmKxbpECIxeVbXMzj6u8H48UOq8edFwaG9wjOUzPjXrJ4TshjSlbJ5jlZ8K4ONU8Bmmpxk1TLlQFngOp64HhNeVTKeRuEN8zuf7lLGtERETThw3e2WZ8RAo96JG8vZHMipJcuYq8LXndXikUza/iVhapClu60pOxZFWkzCpxaRmNMlGp6j4WTVTSxqOnpdNjiX9JY+Fu0Ui1SjZ3jxTWxH88ekza47aL7+oqaWZSjTe75A4MKmksGsHhHsmdquQaVPjucEre/W9qjq2t7Jo0RhL70oZZHOfYU8p3dMdQw5XRIJR/+PBJbueeSTV473B4pf0ZP5ZoGiL5NKazqPmhb7Sk18v5mFGGxwalQCKfxGe2bimcyNekzEa5yJc9x5JhHY9Kx7qVCnZGQ0P2BynsvSNz+wRNXmZ9x4hayZfzKSBFlHCly1UyXJllt4Tl0ayRoTLJ18wyJhpW3UeVNPudFDkth7QcYZyGNMr7vJAbhU7J4X1BOhBOXj8SUg1Cg8aiIeO4ikBL4YBXclyrKVNjxyRv4poh0t/7dnpbOXwBT/I8wB2SN/wHZb1glp8JhTZ4Cz8HJtXgTcTHqKwRERFNLzZ4ZxW5ArM1s4KkJ1eyHE9mNBimVEblx2CZVIPXLnlCIwaVUqUiZtI4U79vtv80NSyiMus9pvtBQXyaerKTb0PApCKaSiNxHE+vpiIqM/mOWrEvqgEq5KxIGyh0ey21op/11EytMOsq+arxYSngzH6CnjP/zcKZSC+zRoyaxgU0qHSN8AT5xydPskGXWbZKVR5lJo0MlVn8c5YxWQnDOJ1pNNnzQkiVrzz2kdrWKK4Zcl9LtE+mM+KY87wrsMFbxDmQOy1MyuKEZY2IiGh6sQ/vLBIfCuLhT+/EfblGY61uxH0bz+HhV4amue+UySjNh5yoLbbU2TfgXtuC7I7nox/h0L4BoNeFujlqP7X0MqfOhV6xWeyDYZzNmSj/ivChXsRQg+U3Lka1slZlsd6AW5bXKH+Vwgq03vttWDMiNBfzFy2BVT9vafW1uOn2ehHHB7DZE8zdn3hafYaBXz6C7f1fhfOp7Vi9YK6yXlDzyb4Gd95gUIYtX8ctd68ScY/ig+Fz2eXXKP8t12DR9XKeaOdGjmM0/A72xWKiSFyHObryUFX1ZdS59ovtTI6Tou5HVOWXfwt/Uq0reRYrGm9pEOHVKVl5LAWjMiaULIzTnEZTel7EcWHkNE6I2Nhbb8cN+rhmUK8lIv3v/GbWtUQ+zxfcsgatImHKUw5KdQ4UwqSsERERTTPemmaNL3D6aAh/rKsxqDxpWVC9cBH++PKvcbqcdb8ZJH52GB/Io15NwHr9IszPVeJTcwgvRt3C3KmcTR4QJ6gbiEmtVJaA5RtY/Vg3PDagv3Mt6q5cWNTgS4YSA249qxn0RyxzroOrN49EzSAaBAPPYdv2N2F1/hSPrP5GxgUm33wSTYDMxn7BLuHs8OnEQGi51eD6RdfkuAiq+7Fi2YTnXVrJymMZlS6M05xGBZ0XygBtugGk1Mb1xPItV0Ih85GfOI2RkjfUS3UOEBERzX68z1HlsPsQGdc9UdYsZZv/N34GfTvWoa55LVyd+VWdi2Gx3opdR04hEnoJXsdXRQX/PqxutGOT/2TRjcN47DB2rLKhee196OzPqypv7kIYv9zmRT/uQNuPmrBg2q8uVlEkBjFuUBaSSxiPN12jbFsG01UeCzHdYSzB8fM7Ly4h1vcoVtWtxFpXpyijl4tpPgeIiIhmADZ4adazzF+E6+V3Jif7pMTw9diJxDHavxv3dIiGrs2NPeGopnL5OSK+dcp2pTIPtU0bsG3vhxiLBOC2/R49rkfwStYUJvk4h/6fe9Ahav82dw/C0YvpivD4IHz2rBdRc1BfZRb78j6EHxi8dp/KpwkV9rQwm8lr4QUrbj8lK49lVLowzpQ0muC8GD2Kn9+zUzR07XDvOYaoppE9HvGJtflQ45qH1LUkD8uWYGHO16OLUapzgIiIaPZjg3fWuAJLVjTjSxNWXi4hdvIjfGnDzVhyueTuvG+ipbUBiH2E935T4HyaGaqxsG6x+G8Ux9/7OCud47H38c5x/WuK6Vc67a2b0NpgnaKTyoLq2r+Aq3WF+HchDXSN1GuXK9DqWocGq6a/bUHSrzLDth1dP2g0bqxW16BumWgu9Abx+vufKSs14r/FOy8cFGm5AhtWLJpEOlowr/GWZP/I4x/iN0U3qOTuAUuwTPzLcD/xGMLvDIjw6pSsPJZRycI409LI+LxIvUJt3yA+W15kP1M1rjH0TthlRL2WHMW+1z8yuGZfwpl3gtgXE9cN7bU6149u8d/h1IdnlD8mUtw5kOuHiHgsgg/PXlT+IiIimj0ulyZRRbDUrsFPv/Y6nhkwaCwo4rF3sfu1xfjp+tpZkrnaCvM/IRy7JP4lGu1DnxTwVOIraGyxiybnm9i+aiu6Dg9pvqv2rb0b7X3nlHVmrsCSlu/BaY2hf/uDeDR4StmP2MfhJ7CpwY6OrNd+NU9S3j2WHjRH7hfrfxibS9KHN47RvofQouubGI8N4M13B8W/iulzLKQq14N49+hpJa5yP8c++D1b8+/DGx/CKzuSrzJ7uzahwexplWUxWjavSeXTE8e1cTmOvZ77sNZ/Elbn99Cy5ArlkyKpDar+Nqza8iQOD2kaVWqf5ZaH0DeauyFgWdKMzc56sR8vtj16QMlfOY0OoWvTbWiWn+xnKVV5lGl+hHnnfcQSh/8XDP3zZBuJpQvj9KVR/udFuiH3KxxNlQX5OH54Nj+QZx9eOa43Y4P85oN+kCzRsB94TVumtNcSF7Y88atk3snkbfc+iHvW7kbMugabWxZrrtVqfg+g89Hd6EtcD+WvyOfHvbiprSf7xwMzxZwD6o9SsT149GchJcziejywD57vr0Nbz8nEZkRERLOKRLNLYpqPzbp5FWXK3JOOx2b2PLzyop/ywug7mm3ymjZEM/2J8ZLHFDQJmjlodYvV0SE9YzQ/aGq+Tf13rNLNtpsTU5NkTA1S8NQj6XXZxxDbZcx1a8LwmJp5cbOWBslmu1b81yiMmVL5Y7jo4z5BPtl2ZpXfoqZKEdLTSOmOoS55zcMr0ig1n7L++w7J+4w7kX5Z0+eUrDxq4p9aNGlqVpZyljFFycI4XWlUyHmhzklrsO3NNsmW99RGOeIqLxll6qIUDe00Ob/kxWSaNdPriV1ye9sM0tJkWiKh8HMgxzXB1iZ5ja5/+ZQ1IiKiacQnvLONZQGadnXC9fX/iRc2LUuMMppYVv4tjo59C3/93N+gqehXU0ugkL5rKkst1v/dc/A66pUV9XBsWI6aQkpnIl32KwPXqPuRiX15X8CB8EF05DU4yzwsdT6B/pAPblELTkr2+xt47q/xnbqrxN+6J6rVy9H24kEEvA6o35D78/pC/XjraVfi6fXkWDCv6SciTLq4ycc4EMbAs2uKHCDKguqGLXgxHNDs1yp260Mo8t/wdOuNyroSSuWTNn0FqwPe/UcQOfhgycpvYjCjg/0I7fdCNFDSEsd6E+GBnWiaN1HCiTRa2ord/SH43GpPTzmNesT3n0Xbd+owV/yd1ee4ZOVR7Kr2Lvxdb3c6DtbbseHmGs1TwSKVLIzTlUaFnBdXo6HtWYQD2rIgzmtfCJG3dqNVfqqZFzmuG/HcQDjzfFfDfPCvYEuVKRHrpgdxMKJNF5m87UviHNuPXU0G06wlricHsCcjLeVzcj867vxT47Q0Ufg5oF4TejKvf3I6HXwUdxpd/4iIiGa4KrnVq/ybiIiIiIiIqGJM+iEBERERERER0UzEBi8RERERERFVJDZ4iYiIiIiIqCKxwUtEREREREQViQ1eIiIiIiIiqkhs8BIREREREVFFYoOXiIiIiIiIKhIbvERERERERFSR2OAlIiIiIiKiisQGLxEREREREVUkNniJiIiIiIioIrHBS0RERERERBWJDV4iIiIiIiKqSGzwEhERERERUUVig5eIiIiIiIgqEhu8REREREREVJHY4CUiIqpE8U8QdC1DVdV6+Ie+UFYSERFdXtjgJSIqgfiQHy1VVahq8WMorqwstfgp+FtqshswZutntHPoa29kY6xs4hjtfxr3+38Pm3cb1tdeoawnIiK6vLDBS2UVPxOEq0Y0Aqpq0OI/Japg0+kLDPnXJ8Kysus4LihraRJSDa3vomvgM2UlUSE+RmSEZ2PJXQjjmUf3AM6n8HzbclQrq4mIiC43bPBSGX2B04degj8m/zuG3gd60D86vU1eIqLK9wWGXunC9sgaPPXId7GAd3oiIrqM8TZI5RMfxtGXjwL2B+FtaxBt3l4cCv+r8uF0uAK1zlcgSVEc2cYnHiVhWQrnoahI0zewreFqZSURTS/lWhd9CmsWzFXWERERXZ7Y4KWyiZ/+NV7uFe3dDd/D/+sOO6wYwL5DH2FU+ZyIiIiIiKic2OClMvkCp4++jV6swIYVi3F14y1otQKxfe8grH+tecIBd9J9b/X9gOOxAbzmb8dKebAgZanZ2IXgQMygv7DJftTj1+xA3+hnGAruUPa3DK7gJxP0Ox7FUN9reLVrI2pSYajBynY/+ob0TXvzeCSM9qFd7u+c16BH6r4a0d53LpEOwVQY5OPvw0DsUnLTC0M4bPZZlkuIDbwBf3uL2FaNzzJs7Aoaf8ck79QBnGra+zAaj2Eg2IWNib7cYqnZiK7DQ8Z9qEVY+zLyswXte48jNmF6pI9pnH7GAyQVHc4JiXJx+InMfQUHjOMhxzn4Iro2yqPpKtvL8fb3YehCHhGfUGF5Wvo0kY8f1MRPPvahHHGLiyTpR/BVzXHlZWU7/H3Zx56OspYMY19mmorw7c267hQWF2Pac/1fxP6CaF8pn3Mizq4gzmQcUJ/WYpmo7OWVBgb7lePwmsF+J7ie/u+c56lgej8oIAxERERaEs1C56VI6CXJ66iX5CxMLDa35DsQlqLjyibTbeyY5LVZJdh9UiQRpj9IYe8dIqwNkjv0aWKTtM+liG+d+Mwq2X2DUlYUxgcln13sC+skX+RzdaU0NrhHcliV+Gct9ZLDd0IaU7ZOMjmOun+rQ+rocEiiXZ7aj9UdEqltRt2f9riaxbpFCoxcVLaVTRDP8yHJLcfH6pFC5yfKSHVfIp4dO43TwdYtHYu8LXnkfDD4LDymP8Z5adDnzIh/xmJ1Sr5BXWoY5o1YHfFJdvEdq2On1KEtp6mlXnIGhjPTYHxYCjiNtjVJLx31mOkyp/WpFHI3iH1llr+iwmkidXxbm+R12w32ZZVs3mOZZTKVfvptk4vVGZBGtAc3SW/T9UXkaSnTRJIuStHQTsmWtQ+x2LZI7sT+jfMka/vEkn3sosI72bI2EpCchtce4/Mgezt5yTcdc5zrGdeK3HmdXZbyTYNC9zvB9dS0rCal0izjPC4wDERERBp8wjvbxM+g76Gf4fXxG/CDvSfkHyySy5EOrL/uHF7wdKHP9OndVIlj9PgBdPfLrzPfjCWJUnY1brhzDeyGrzVfgSUrbhOfxdD78q9xWvdrffLV6JjY2W1YsUSZWuNCGL/8oQc9sXo4vG8jMjaupMV5RAIe2HASPa6f4JeFjBwc64HH8x5u7T6K6LjY1/jv0H9fI+YpHxu7Uhz/BRwIRyHqW8kwjJ2Az1Ev9hfE04c+1j3xKTURT89O9NR5EIicF8cfx1gkALdNVA3723BT3W3oiNyK7mPJ8I1HeyEawOIzL3a8MqQJWxwXBnz4ocuPmNUBb28EomGmxGcQAbeogsb8cP3Qh4ECnjrGenbC01MD955jSppGcazbAasIt//+pzWDmKlTqJwU9eQ9GFTzcyyCkO9eLFS2Kpf8w5mH/m5s3zcf3kA4uS/pIqLHnoLDGkP/9i68on+L4Uu3w7v/TYSjF5NxlvNwcI/YXk7yl3DotNFbD/mYXJ6WJE1Gj+Ln9+xEvzi73YFB5fgiPcI9cCOIzp6TyoaZvuTwYv8BNf3k5TxEgyd57KdDWdcI2dSVtXPo/8Uu+OVrj++EEif5vAvB5/66sk1aMXExljzXD9/6FI4lyopIx/7NWD5PvsCKOPX9DE2ut1Dn7tGUJfmcP4Y9Iq9j/l34Rf+55K7yTgO1DOW7Xw2z66llEVZsWCE2OIqXjw6LI2ipbwZZNfeOSYSBiIhIJm4aNGvIT0m3St7wH5S/DchPVh1PGjy9m0rq0zSTp1BGTzBNf/U3eio6Lp0PeSSr0ROzhIvSSGBL4mlA5hNakyesqWOL/Xl6S/KU3PgpRTme8IrtbTulUNToSbK8L/0TPDXt9Gmj5tkdxuUr9TRI94TeJN/ST7bskic0khlXw++k8zSfJ2xGjNNclfsJb/7hNJfal9GT8InyPstEZdXk3MpYX1yeli5Ncp+n49Fe5e0DXZkyY3LsqS9rJte3QhSUjrnOdZUSJsOyn06j9DmfbxoUul8hFTfz62kqz/T7NUyXIsJARESkwSe8s0h8KIiHP70T9+UaDbe6EfdtPIeHM57eTbHRj3Bo30DmE1mZ+st+bA8ef1UXPrNf/dWRnhN9gRcpnc7/FeFDvYiJda13ftNgtOW5WHDLmmSf4Q+GcTbvhBD7u/fbsM6qs8IKe+sG2KzakVjnYv6iJeIT8Wnr3bhrqfYZtQXVC5dgmfhXRtqk8mwN7rzBoHxZvo5b7l4l9hnFB8Pn8i9b9g2417Ygc7AAyzVYdH2N+Id2/lURrrpG3G6Node1FZ7gqSL7zhYp73DmYdmfY0Wt/r2A3G8xlMVk83TSaaKepzVYfuPirPPUYr0BtyyX91UiU1bW5qHupj8T6bYfrs2PIJjVV79cjM51hZrXvS7UzVH6t2qWOXUu9IrN0ud8nmlQ8H61zK+nliU3Y4NdXKF638ZRzRsMhm/zTCoMRERE8l2PZgn5Va8Q/lhXM8F0OnKDZhH+OFWV6ixxjIbfwb6Y9pU0Va5Kv/FnagXI6v4B7qpVKkDxcxj+IJr890ROnMZISQb+MaMMSqMbOEuthM0W8bPD+CAxX/JEYjgRiZalMWpZ8F089vxO2ETKda69DlcmBm56I8cAW5VCHvgsqBtU6suoc+1XPi/OtOdp6jxdjLqFBU4ClhjI69nU4EyJZc51cMmNoRKYXFmbiwWrPXjeYwf6O7C27qrcgyeVOS6yfPPaev0izFeuyfmkQTH7zYvhD5zq68wNcLffiVplf2ULAxERXTZ4e6ASU5/qyE8OrsMctYKnLKmGoO6XfZllSTM2O+s1n6UrQK0t35ygL+10uIRY36NYVbcSa12d6FfWUrHmwtr0MI7I/Qj3e+Gwioq4axUaG34I/6nZP5mVZf4iXC8/dteS++TvWIe65rVwdc6mn0jKJx47jB2rbGheex86+0vXKMw0ybJmWYCmXW9hLHIE+70OWPs74VrdiIZNe3FK8wPb1MRFw+5DJNVXOHuJPt6kuY4WkAYF7TcfV2BJy/fglJ8wqz9wqm/zWO1oafxKcjOtkoeBiIguF2zwUmmpr59NyGDAktQrlspnZhWg1GuKeVi2BAury1TMtQPyqAPlKJWv8YhPrJ09DBtjhqxYNuFbBpNUXYumu7Zhb1QZgEweWGnrq3lM1TSzqU+q0k+i5IGDduOeDtHQtbmxRzvwmfQ5Ir51ie8Va9rztKhXws+h/+cedPTLSZI5QJE0Pgif/BpsKU2qrFnE1224a9teRJVBwGI9HmxNdSeZurjkn9cGcqRBar9leFPGsuA/4u7WhtQPnKm3eVpvQWNiIK6kcoaBiIguD2zwzhryK7/N+NKErx5eQuzkR/hS1uvEU+ESzrwTxD65Uu8O4bxauctYxnE+5BFVbKPXmi2Yl5ivN/nZ0JBxBUjU0LCwbrH471Hse/0jg/RQw2H0WnXppF61s2+Aq3V5Hn1/1b61Rq+Qinw7NYizyl9TrroGdctErbI3iNffNxjZOv5bvPPCQRFybV/qcpuH2tUOtMoNgzwqu7kqxvFYBB+evaj8VWaXfouR3+lfjU2PPptuXF7C2eHTIk3lvpmb0NpgLW26TnuequdpFMff+zjrPI3H3sc7x3VdE1KvQa9Aq2sdGoz6q5ZFYWUtS/VSrHZtSHTJSJ3bUxmXifI6LwZpMO+baJEbpbGP8N5vSv2WxVfQ2GIXpV/+gXMQQ2Zv85Q1DEREdDmYmnorlYSldg1++rXX8UyOqXbisXex+7XF+On62qnP3PjHOPR0UFT57kDb+htNXi8Tjdrlq9EmT41j8FpzqnLTuw8dHftMXmdOvw7Xv92FLU/8Kt13Lh7DwN4Hcc/a3YhZ12Bzy+KypUO6gfUrHE0NXCP3x/TDs/mB5KvbGeT+1cqAUZ2P42d9Z5JPgpQwf/+m+9EzBW89GrIsRsvmNaLy+Sa2r9qKJ47HUk/f47Hj2Ou5D2vlKUyc30OLdiCykjmHvva7dX0ILyEWDuHdEyJR8nlSr1b6Y3vw6M9CSpkQ+xjYB8/316HNZAqckuvfieaGv0TX4SGlkSfKRPARbJb75GaUSc0PIO8ew5DayJL7fPofTm4/GdOep9rz9EE8mhoYSaTH4SewqcGODv1rvqmnwoN49+hpZXu5n3wf/J6tJer3OsmyNtqH9hZdn11xDofffBcnRGqnftCYkrgodHmdLnsytY/4d9HiP6WUgXzTQG2U5tqv2E9fMVMCaX7g3NeFjn1mrzOXMwxERHRZkGh2GR+RQp7NknvPMd10D+elSMgnuR2PmUxbUX6mU01kSU+5kj1dSXraHLl4mk/Rc1GKhnZKNnW7rMVgipJCp3qZkDxN1B2aY2qWm22SaNMbpIXZd0RauB+T3PI0LQVNS2Q0rUg6DY2m6jCfEkQuW3ZduDSL0ZQoJmmXuyyo07pop6NR1+mOmVjqJWdgWBdHI+PSWLjbuEzY2iSvW46byRQ8eYfTnLovq2On1OGQp/vRhUHEw+E7kVne5WnEElPz6Le1Sjfbbs6eNsasrJquLzxPS5km8nVp0OdMn8+axerokJ7JypMceSi2s9muFf+d5rKmTh9m9H3rFikwoqZn4XExlutc15gor4tNg4L2KxR0Pc0Mh+nUQoWGgYiISKNcD7+oXBKDpXTC9fX/iRc2LUsPCLXyb3F07Fv46+f+Bk1T9hqgVvqVzYlfI06PyNzffQDHR9XHJDL1V//kX9mvM6vkAVcexMFICD63qO6m1MPhfQmhyH7satJNUVJyV6Oh7VmEA/KAL8oquT+vL4TIW7vRKj9tzKJ8Z48boiKcZHPDF+rHwY61qJOzrpz9jnNJlK39iIR8EA1vZaVgdcC7/wgiBx8sY9m6Bk0PvqgMnqOsEmXJ5n4GB8K9eHbNN/LISwuqG7bgxXCPJvxKfhx8FHfWXSX+LmLE4ELN/zZ+tDuAkE+fxwHsdtZn9pWtXo62Fw8iIA98pKxSy8NbT7sSbwNMyrTmqWweljqfQH/G8ZN93gee+2t8JytP1DwMwOuoV9bJ5cAnzun/hqdbb1TWTcYky9o8Gx7sVwarUlYly9lBhAe6sWaBmp5TEReNVF6/pDmeTL4mvoBA6EU82HSNsq6ANJhgvwfCB9GR2m+h1Ke3shyDE5Y1DEREVOmq5Fav8m8iIiIiIiKiijENj5GIiIiIiIiIyo8NXiIiIiIiIqpIbPASERERERFRRWKDl4iIiIiIiCoSG7xERERERERUkdjgJSIiIiIioorEBi8RERERERFVJDZ4iYiIiIiIqCKxwUtEREREREQViQ1eIiIiIiIiqkhs8BIREREREVFFYoOXiIiIiIiIKhIbvERERERERFSR2OAlIiIiIiKiisQGLxEREREREVUkNniJiIiIiIioIrHBS0RERERERBWJDV4iIiIiIiKqSGzwEuXlEs4E70dNVQ1a/KcQV9YSEREREdHMxQbvrPUFhvzrUVXuBthoH9prqlDV4sfQ5dzKGz2KX9y/GzHbduxaX8sTh4iIiIhoFmC9XaU27KrMlka0951TNr4MnTiNkQuXa4v3Mww8041ObEHg+S1oqK600yb948nKruO4oKwlIiIiIprt2OBVxM8O44OY8geRRnwoiB3bP4Hzqe1YvWCuspaIiIiIiGY6Nnj17D5ExiVIkn4J4/Gma5SN6HJiqXXikHQCvjXfqNAT5grUOl8RZTyKI9uWo1pZS0REREQ027HBS0RERERERBVpyhq88dhx7G1vSfWJrdn4BA4PjSqfzkZxXBjqg18Tp6qV7dg7EDMYQGoUQ31+tK+sydjW/9oAYtqNLwyhL/giujYuS29X1YJ2fx+GCuk/W8x+4jEMBLuwUe3HXLMRXYeHJujPeQmxgWDmcYziJYufgr9FxL9mB/pGP8NQcAdWJr6zDK7gJ8UNupWxzy90YVmGjV1BDMQuKRsrCghHPDaAYNdG1KhxM9tnqg+s3M/7X0TyB1N5XeMK4kzmTjPTWe432/4sXjMsNzJ9GsthOCTy8d+UY66Hf+gLZVtBjZ9+fUIco307DEaazjEAmlyW/O1KGsmLKEd7j2fnr5H4Jwi65HB/F10DnykriYiIiIimkFR249LY4B7JYYUkHy5zsUue0IjYYvqNR3ySXQ6T3SdF8gjQ+EhAchrGaZ3ki3yubCWMj0ghj91gO3lpkNyhT5XtBiWf3WqwTXKxOgPSSEa4PpcivnXiM6tk9w2m07Dg/QimYbRKtra2ZN5ZPVLovPaL56VBn1OyZn0nuWQdRw2X1SF1dDgyvmd1h8TeiqDZp/cZt2TT7DO12Lql8JgmIHmFI1eZFYt1ixQYuZjYMknNi3rJ0bEz83vadBs7Ifkc9enPMpZ6yRkY1p0LF6VoaKdJvNokr1vOM00ZkqXyX1cOE8al8yFPIs6ZaW5WloalgNMovLrtzJwPSe5EWuS5PRERERFRiZX/CW98CK9s9aDHcECoXnTcsxv9o/k8LpoivS7UzVGfZqmL/snXOfT/Yhf8sXo4fCcwlujjO46xSAg+99eVbWRxjPbvxj0dvYDNg0DkvNIf+CKi4QC8jq8q2ym+dDu8+99EOHpR2U7sc3APRAMKMf9LOHRa/8TOREH7MQnjeBThPa1Ad7dB3sVxYcCHH7reQp27R3McCePRY9jjtovj7MIv+g1GtY71wON5D7d2H0VU7is9/jv039eIecrHRRH73H7fPkATlvHoUXQ76oF+L3a8MpT51FKWKxyj/Xi06V701LmxJxyFaKhp0sQNW2w37v/FUWS/n3ASPZ6dOHzrUziWCIfI5/7NWD5PPs0+w8AvfwJXTw3ce44lj5nYr1wWeuC2/R7++5/OPBdGj+Ln9+xEP+xwBwaVcqZsj3/E9k6RZ2Ujl4uncb//JKyOPRgcG0+GdyyCkO9eLFS2yqn6Wtx0u8gD3IhbvzWf/SeIiIiIaOqJSmxZpZ6cmi66J1TTJHc49U+oPpVC7gax3ugpmkbqadsdkjf8B2VloUyevpmuN2O2vRoXozBqnjBmPOFVvmPyNFxNy4yniKm0sEo2T68kGnyTl9pnveTwnZBEgzCD4VP7CcOhPgU1yVv1+xnpoaatOJZtpxSKap/+KhJPO83ySv2+9lxQwyHC6T2WHbdor+SxyfEo1xPe9PHzK19ERERERDNPmR+6xHFh5DROKH8Zi+KD4XPZT+Cmi+EozVEcci7VPKGah7qb/gxW7Idr8yMImvVFvhBF5ERM7HMN7rzhamXlDDP6EQ7tGxBtnW/ixj/RP2edC2vjt7FctJAyqN8xfBpehTl1LsjPHmMfDONsVsauQOu934a1pCXvOnxnxZKs0YUtS27GBrsIfO/bOJr1dNwsHP+K8KFexOS8rftyVtyq5lwHV6/I09hpDJ/V9+W1wt66ATarfuqiOEbD72BfLCaS7DrM0e+z6suoc+0X22nPBTUcNVh+4+LsuFlvwC3La5S/ysGC6rpG3G6Vw7wVnuApzs9LRERERLNOmRu8otK8cAmWKX8Zq8H1i66ZZa87zsWC1R4877ED/R1YW3eV4WBNhc/tKw9uFcwcCCvVGCpE/vtJhXHZEiyszi8X8o2X9fpFmD+7MlZE7hyGP4gqf+RgXYJF8/Odk/cSzg6fFo3XiWjOhVQ4FqNu4fRMFGRZ8F089vxO2NCLzrXX4crEwGdvGAzaRUREREQ0M5W9OZJ6ymbGakdL41eUP2YRywI07XoLY5Ej2O91wNrfCdfqRjRs2otThYyorIqfQd+OdahrXgvXZPpmlmo/+TCdszi5RB9vmlzf3MmyXINF1xf7FHQdfJHPDeOVWKK70JTom1sIq0iywXSf4Kxlps31PBfWpodxRO63u98Lh1U0fF2r0NjwQ/hPzeYR1omIiIjoclH+52+WWqx/siMxYFI2OzzPb4Gt4IbDTGFBda0Nd23bi+jYIALyYE09HmxVBkmyzF+E63O09dO0A0fpBkqSPkfEt07ZbiKF7ycVxhOnMZJnQ72Y70wL9SlpIU9jJ9VINjMX8xctEc3dGE5Eovm9GpwKx8eIjEzzy8TVtWi6axv2Rs8jEvDAFvPDtfVVDM3grCciIiIikk1BS1M0CpduxHMDydF7VVZHN3oj+7GracFUBKL8qpditWuDaMJrGjXVNahbJlqGhn1ItdRXXuU+oJvQ2mAtMk2K2I8axthHeO83+qd2lxAL/xOO69/FnfdNtLQ2mHxnOoiG2MnhrIZk/PSv8bLc37aA17VFgmBh3WLx36PY9/pHJeq3asG8xlvQKifz8Q/xm7x+JFDDEcXx9z7Ojlvsfbxz3ODV61wN5fjvcOrDM8ofxZiH2tUOtMpvbMz0HzuIiIiIiIQpa2tarMux8fFDytNGCdG9P8attdP6wmvxRvvQ3qLrsxuPIfzmuzghGpvL6mqSgwxZFmHFhhXiH/rBrURDcuAN+NvvRnufPHWP5gngu8cwpDYkLgyhz/8wNufdh7eI/VgWo2XzGvGdN7F9W2c6jOI7h7v+Eg3N8rQ4el9BY4s9+Z1VW9F1eEjTIFP7D6txK8Q59LU3oqqqscDvyn1M12FL1yElznER/CA8mx8Qn9TDubkZS/Iu6VdgScv34LTG0L/dpdmnTN5vP4L+dqxs8Rf2hFP9kaC/Dau2PInD2oHO5PwJPivK1EPoS01LpA3Hg3g0NWiUSN/DT2BTgx0d/Ua9gtWG8gA6H92NPqW/bTx2HHs99+Kmth5ROvIh54XIw4w+u/IPICG8Kw/Els+PCPFPEHQtE/n5XXQNfKasJCIiIiKaQqLxScLE0ydppmdJTDFjtI1YrFukwIhmWpqxE5LPUW+8rXZKmbFjkjcxzYx+G6t0s+1mg+lhTKYZKng/gmkY6yWH90nJLe8vYxoeYXxECnnsBt9Rl0Kmy1FopgzKCqOR1PZ2qc39/cR0O/pwWB17pMExbbjzCId2OiaTZeJpfbKlpxIy3mdWGosjDPqcJvHaKXUk8sxgWi/TMmCX3N62RLwmDr86XZV+H/JSLzkDwxPnT+o8yTM/iYiIiIhKbMqe8M50+fe3FebZ8GC/MliVskruj+z2HUR4oBtrFmj6i1bXw/lcL8IBedAfZZ1gdXix/8DT+GubMkhR9XK0vXgQAe0+bW74Qv1462nXBCNdaxSzHzmMuwMI+dwQjaGkRB/gXjzXZkedHB39E73EoF37EQm9BK+jXlkpq4fD+wIOhA+io+gBmFZgw4pFBbx+cBX+1PUE+kM+iMa5sk7kx55jGHhuI5bm/TqzSh6s6UEcVAckU9bKEvkWOIL+B20FD8hlsd6KXQf7lQGglJUyqwPe/W+KsrNTNxDWPCx1inj1dqe3l7cNhEW8tmD5/H+nrNRJlIEDmi4EVpGdPoQi+9Fx55/KsUu/hWDqGjQ9+KIurPJ+nhF524tn13wjj9flr8VNt8tl40bc+q35U/c6CRERERGRokpu9Sr/JppGcVwYeBKrGr2A9wAObls+QYNMiJ+C//YmuHpXwBfpgbP2CuWDy4H8yvFtaO4E3KG3Z9jozkREREREMwMfutDMEP8tev/ej37bdnT9oHHixi4REREREdEE2OClGSCOC+8H8XdvLYfvH1xoKPgVZCIiIiIiomxsWdAMYEF1w49xJOqDc+ksHbl72ixG3UI+DyciIiIiMsI+vERERERERFSR+ISXiIiIiIiIKhIbvERERERERFSR2OAlIiIiIiKiisQGLxEREREREVUkNniJiIiIiIioIrHBS0RERERERBWJDV4iIiIiIiKqSGzwEhERERERUUVig5eIiIiIiIgqEhu8VEajOOV3oaaqCjUb9+LUhbiynoiIiIiIqPzY4KUyuYQzwR1och3HrR07cethD364K4QY27xERERERDRFqiRB+TdRiVxCrK8D329+GvAewMFt1+N8sA3/Ye27uNX3j9jtrEe1siUREREREVG5sMFLJRbHhVP7sKXpXhy+PYD/59k1WCC/RxA/g74HnGju+BK84eexreHq5OZERERERERlwleaqcQsqF66EXujEqI+pbGbWL0ATbsOQZLemMWN3XPoa29EVdV6+Ie+UNbNEvFT8LfUzM6wz1hxjPbtQE1VDVr8p8RfGqN9aK+pQlXNDvSNzvL3+Kek7EznuZUjH6lEvsCQf73IX6YxERFNPTZ4qcTUiquo7JssNe19GFW2np0+RmTkgvJvohhORKLQloj42WF8EBP/iJ3G8NlLyZWUh+k8t7LzkYiIiGY/NniptOLnMPxBVPkjH+rTlUpoCBPp2G/DiiVXKH8QERER0VRjg5fKZB18kc8hdxHXL9HHmzBP2Yqo8nyG918Pohd3wLtrDWp5lSUiIiKaNqyKERGVUPxMH/6++z3YvA/hBxycjYiIiGhascFL0yY+5EdL1Rxc1dyBRHfHzmZcpfb1bfFjSBnZJLmd8srzhVMItrckt6m5H8Ez2v6RlxAbCKJr47J0n+GV7fC/NlDg/L/6/SzDxq5DGLqQYycXhtAXfDHz2FUtaPf3ZX9PHQQoMaDRFwUcaxRDfX60r5QHEJK3rcHK9n0YiE2mj2hcBL0fwVe7sFEeZEkNu5xufUP59WdUB2hSv5uxGA1CJKfvG/Cr+ZhY5HgHDeOSkf/xGAaCmrDWbETX4Rzh1G+fSLNn8dpArKCBc+KxAQS7NiZevZf3U7PxCRweMnoB/zO8/49+vHX7U3i+bbnp9Fv6/SXLyhvGeSmXLX87Vmq33XvcuExnbWsU3xLkeYJcHl/DqxnxkI/nR59h2siKOLeEgtIrh/zzUasU1xU5zfsyy7zYx96scliqvBHyKgtJcrq8lrGtnDZdCBqdJzkHMStyALACzlP1eqC9R6SZDH6Wcc39DEPBHUpcl8EV/CT/cBIR0ewk0Sx0XoqEXpK8jnp5SqnkYnNLvgNhKTqubDJdxgcln90qwrRO8kU+V1YaG4/4JLsafv1i90kRJS7qdlbHTqlDG2c0SO7Qp8mNRJoM+pySNfVZ5mJ1BqSRvNLmohQN7ZRsBvuAbYvkThxfe1whFWeD74gl69jq9laH1NHhMAxzdngvSiOBLcbx06SVKZN8yZkHqJecgWFpwmQ7H5LcVqPvy4u+HOTOJ1idkm/wvLJtknn+q4tJOMdOSD7D7XN8x8B4tFfy2Izy1y61ub+fiIvVHRIxy8e4NDa4R3KYpZd1ixQYuahsK4wPSwGnURyskt03mBF+83CKxeqRQueTWxec54Zl53Mp4lun+65m0ccjoYhzq9D0yqG4fCzNdWV8JCA5DeNQhvNRyLcsTJi+4pgO3wlpTNk6Iec1flxcDjwGaamWl+xyW+h5mkojw+vep1LI3SC+Z3KNNrjm5n/uEhHRbMUnvLONPJ/tQz/D6+M34Ad7T6T7xh7pwPrrzuEFTxf6JvXEr1T2w1X3ZeXXes2i+VXeUuvEIWkcooIEUQGBqHhAVDyS8TnkzOr7GOvZCc/hG9F9LApRz8F49GXct/wr4pM4Lgz48EPXW6hz9yAcvZhKl/HoMexx2xHz78Iv+s8ld5TL6FH8/J6d6Icd7sAgREVP7OciouEeuBFEZ89JZUOdL90O7/43Ncceh6hIQlQkxbFfwqHTBlOtxHrg8RzWhFkc59hTynd04RXh+sX9uxGzOiEahMoxziMS8sG9cI6yUXG+5PBi/4EwouPJNJP3Kyr5Ik9Owv90CKcnevwxrwmPR9XvyouIe7gbomEj2q/fQ0tq0CY1n/wiHg54eyNK+oplbBABkU8i4nD90IcBgyd+ifzvqYF7z7FkWMejONbtSIbz/qfRnzH9z2cY+OVP4NJunziWkpe23xt8x8g59P/cg45+wOYOIDI2nthPslwB3Z0vJt5OyNuFMH75Qw966tzYE06W40S4RFzCYoe22G7c/4ujyuBtcYz2P437/SdFPX0PBpVjS2MRhHz3YmFiG5VxOBP7DXjh+D+UzRSTzvOEK+HwvoAD2niMnYBovIjMCuLpQx9nPjkr5twqKL1yKSYfS3VdEcf+xS74Y/UQjUcl3uIciYTgc39d2SZt8nlTQFlQ01cOm/ft9LbytSXgEefwSfS4foJfDnymfKHUSnWe5ilxzX0Pt3YfVa4hv0P/fY0cU4KIqNKJmwvNGn+Qwt6tkjf8B+VvA2PHJK/jSSk8lvXT99RI/fqf/gU9Y8n6Vd7siUBa+qmHXfKERjKfDiQov+qbPOlMPSGc8Jd8NSxWyeY9lvlUQ0g/NdE/hTJj8lQjlUbiOJ5e3VN5k++oT1HzeZprJOdTGQOFbq8ll0E5nbKevqlPX+4wLsOpp5mZ6Zsz/83CmUgvg6dJCWoa55GParrburPPqfERKeSxi/3k+5RILV8maarGJfUELl0ejeORlkojo3DmyywtCywLxk/gijm3Ck2vHIrKx1JdV9Ryn1/6GSogD/IvC7nzRDQ6U2+VZMQxZ1jUferTJdd1rbDz1Lh8qSZ4wivHNeuaS0RElY5PeGeR+FAQD396J+7LNRBOdSPu23gOD78ylPl0ZcqZjNJs8OQ2b/YNuNe2ILvj+ehHOLRvAOh1oW6O7omyWObUudArNot9MIyzORPlXxE+1IsYarD8xsVZ/S8t1htwy/Ia5a9SWIHWe78Na0aE5mL+oiWw6ucErb4WN91eL+L4ADZ7ghP2eZw+8hObR7C9/6twPrUdqxfMVdYLaj7Z1+DOGwzKsOXruOXuVSLuUXwwfC67/Brlv+UaLLpezhPt/K1xjIbfwb5YTBSJ6zBHVx6qqr6MOtd+sZ3JcVLU/Yhq8vJv4U+qdSXPYkXjLQ0ivPlSy5fJ2w9zroOrVxwsNXevBdV1jbjdKsdjKzzBUyZ9OOO4MHIaJ0RI7K234wZ9OGeEYs6tQtPLTJH5WLLryjzU3fRnYv8iHpsfQXDCPsOTUUhZUNNXXIfu/KZBf/O5WHDLGrSKhJk4jsUo1XlaCKNrLhERVTpe9meNL3D6aAh/rKsxHQgnSVSSFy7CH1/+dZ6vJc5+8bPD+CD7fcQs1usXYX6uEp+aQ3gx6hbmTuVs8gA+Qd1ATGqFrQQs38Dqx7rhsQH9nWtRd+XCogZfMpQYcOtZzWBYYlEbEwWRXwF9Dtu2vwmr86d4ZPU3Mi4w+eaTqF5nNvYLdglnh0+LvUykBtcvuibHRVDdjxXLJjzv8pDvHNXWJVg0P/lDgWXBd/HY8zthE02rzrXX4UrDwZryja9GSfJc5Lc8wJJusCO1IZihmHOriPQyVlw+luy6IjccV3vwvMcuTt4OrK27KvegV5PKmwLKQiFzpp84jZGS/8hWqvOUiIgoN95DqHLYfYik+oBlL2Wb/1fuV71jHeqa18LVmVXVLxmL9VbsOnIKkdBL8Dq+Khq+92F1ox2b/CeLbhzGY4exY5UNzWvvQ2d/IY0dA3J/wG1e9OMOtP2oCQum/epiFUViMN3vM2sJ4/Gma5Rtp5L5HNWJJboLTfPUxJsLa9PDOCL3293vhcMqGr6uVWhs+CH8p4p7UliaPL+EWN+jWFW3EmtdnSLPy6mQ9CqDUlxXLAvQtOstjEWOYL/XAWt/J1yrG9GwaS9OaRqSJT0fZ42Zep4SEVGlYIOXZj3L/EW4Xn4fcbJPIQxfj52IPLDQbtzTIRq6Nt3AOtLniPjWKduVyjzUNm3Atr0fispzIDGoS4/rEbySNT1IPrSD22QOyiOND8Jnz/9l3fSrzGJfJvPPpvJpQpN9omryWnjBSrUfRVHlS1Fdi6a7tmFvVBlMSB7ca+urygBwajjzUaI81w5AlTHYkITxiE+s1Skm7pNJrwzF5WPJrispFpGNNty1bS+iyiBtsR4Ptqa6n5QibwooC6n0zcOyJVhY8lflS3x+ERERmWCDd9a4AktWNONLE1YMLiF28iN8acPNWHK55O68b6KltQGIfYT3fjOZ/nHVWFi3WPw3iuPvfZyVzvHY+3jnuP4VwPTrkvbWTWhtsE7RSSVXnv8CrtYV4t9FNghSrzSuQKtrHRqsuV4LzSX9KjNs29H1g0bjxmp1DeqWiap4bxCvv28w6mv8t3jnhYMiLVdgw4pFk0hHC+Y13pLse3j8Q/ym6MaK3D1gCZaJfxnuJx5D+J0BEd58fQWNLXZRUozLV37moXa1A61y4yfVEFPDGUPvRF0ZSpTnqdd97RtEGVyeR5/IYs6tUqSXrMh8LNl1xUD1Uqx2bYBo8qYbeyXJmwLKQipPjmLf6x8ZpO8lnHkniH0xcW3T3k9y/RAR/x1OfXhG+WMixZ2nuX6IiMci+PDsReUvIiKipMulSVQRLLVr8NOvvY5nckwREY+9i92vLcZP19fOkszVVkb/CeFE30TRaB/6pIAKrloxfhPbV21F1+EhzXfVvrV3o71voulDrsCSlu/BaY2hf/uDeDQ1SJDYx+EnsKnBjo6s1ww1TynePZYeTEruh+d/GJtL0oc3jtG+h9Ci67Mbjw3gzXcHxb+K6XMspCqug3j36GklrnK/zD74PVvz788ZH8IrO5KvMnu7NqHB7EmQZTFaNq9J5dMTx7VxOY69nvuwVp6CJ2MqoyKpjZX+Nqza8iQOawcKUvtItjyEvgmmO7EsacZmZ73YjxfbHj2g5K+cRofQtek2NMtP9vOmVvDl8uXClq5DmsHH0v1hW9r7lGl2zqFPLrcZfXbFuREO4d0TIm80T90sS27GBrkRrB/UTDTmBl7TxLVEeZ5udPwKR1NpK59rfng2P5Ddh7eoc6vQ9DJXXD6W6Loy2ifSX9dnV25kv/luYnCp1NsMpcqbfMtCRp6I9H3iVxnhG9j7IO5ZK0+FtgabWxZr7idqQ3kAnY/uTk2DlzyH78VNbT3ZPx6YKeY8VX84i+3Boz8LKWEW58XAPni+vw5tZlPHERHR5Uui2SUxhcZmyb3nmG5qhfNSJOST3I7HpFBUOxXMFEtN/wDzRT+dhNF3NNvknoZCoZlaxHjJYwqahPPSoM+ZmFZDvw+ro0N6xi0fQ7cvdRqerO9YpZttNyem/ciYdqPgaT3S67KPIbZzBqQRs3RRGR5zXBoLd0s2g33KcbTZrhX/LWAaFMNFH/cJ8sm2M6v8FjUNiZCe6kZ3DHXJZzobOY0G90gOeUqbrO87JO8z7kT6TTw1jeqiFA3tNEnz5JLelxo3o+3qJWdgOJ2uucIpL5qpjgrOc8OyI0+Rdofmu5rlZptkM5xCq4hzq6D0yqXIfCzFdUWdEsno+xlTd5XmfMwZV3nJKPcTpa/JVHCm1zy75Pa2GaSlybREQuHnaY50srVJXqNylPOaS0RElY4N3llJbty+JHkd8pyl6o3eLfkOhGfA/IK5KunKklURFhWYyNua+NRLDt+J1LyQeTV4EwzSRd6X9wXpQDiaXWkzpfx4kKqEiUpc4gcGtdKWXWkaj4algNeRrszL+RGKSOcTYZ9sg1c2yTw3Paao8IYDmv1aJZvbJ4UivzONq15BDd4EffqKRW507D8iRQzmDS22wZswFpFC+72Zlf/Esd6Uwnn/MCSXz5DkS1Sk5X3IadST+H4ybEZxzEXe3xFpv7a8iMXq8Er79fmZFX752M+YluescmhY/gvMc7OyMx6VwgFt2MR54gtJkfP/3+T2hvlV+LlVUHrlVGw+Tva6YhR+Oa0OGpTByZ+PqvzKgkyfLuq2L4njmv+UMB49Ju3JSEs5nOdN0tK8wZtQ8Hkqp1NPZjmSy97Y/yqsDBMR0WWhSv4/ccMgIiIiIiIiqijsw0tEREREREQViQ1eIiIiIiIiqkhs8BIREREREVFFYoOXiIiIiIiIKhIbvERERERERFSR2OAlIiIiIiKiisQGLxEREREREVUkNniJiIiIiIioIrHBS0RERERERBWJDV4iIiIiIiKqSGzwEhERERERUUVig5eIiIiIiIgqEhu8REREREREVJHY4CUiIiIiIqKKxAYvERERERERVSQ2eImIiIiIiKgiscFLREREREREFYkNXiIiopL7AkP+9aiqWgZX8BPElbVEREQ0tdjgpRlArRjWoMV/ihVDQ0wjopknjtG+HaipqkJNex9GlbVJV6B2/UPwOQD//U+jf5RnLU2FUQwdfgIba6rE/UIsNS74T2WWTCKiyw0bvFRi59DX3pi80eqWmo1deLVvCBeULYnoMjDah/ZE5Xs9/ENfKCsrxSWcHT6NmPhX7INhnNW3aavrce+un8KJPXj0mXBlXPvip+BvqRH5+V10DXymrKSZ4RLOBHfAZm9Dj1woZbG38PKvo4hXdL6lfxBe2XWcdYwyiA/50SLX5VY+gYEL/PGOZh82eKm04ucw/EFU+SNTrGc71jWvxRb/Sd6QiGYM9UeqRrT3nVPWUWGssG+4GUsM7qiWBd/FI0+tQWR7F16puAY/zSjxj3Ho6SBiqIczMIxxSYI0/gH+7js1s7yyN1uvUbneACGiqcQGL5WH1YPQ+XFI8g03sZxHJOCBDSfR88Av0XvmkrIhEVW0eU14PCpfA16Bs/YKZWWFuPARXt93FLBtx671tSY31LlYsOYpRCsl/palcB6Kivx8A9sarlZW0oxiXYW7b/l6sjxa/k/UXjuvwvPtCtQ6XxFxi+LItuWoVtZS6VhqnTgk1+WO/BgN1Ww60OzDUktTZB5q17ThQXcDEPsfOBbhb51ENJtdwpneHnT33whv1yZWAmn6XYgickJ9l5mIiFS8Q9MUqsbCusXKvwtxCbGBN+Bvb0G6T/AybOwKYiBm9qRY/k4QXRuXabY/hKEL/6b09dH1J0z1bzLqZ6i+lmQyYFQ8hoFgV3qQELkfUfuzeG0glrWt2g8m8XrThVMIqnGquR/ByTz1LiAMiUFN+vxoXynHV912X460TMsIv/6YK9uxN3U83cApGZ8ZkPf12rOaMImlZiO6ggOIGXwp1Z+oxY+hrM/V19/UvJx4wC/T/eWdruoxkq/cxWMDCHZtTLzKlpW+F4Zw2OwzA5n7kpcWtPvfMPhOrjDIfeifwOEh7Q9N6vZfQ3PngPh7AJ3NX1OOoUsrEeY+fztWasOw97hh3mRRz62aHejTDNxUWB6q4iIofZnXAtOyVeZrwIUP8I9/9z9we2A32gyfmMnn2Wt4NSPv5DC8jL6MfJiI0X7kcuPP3E/O8MvMzwO5rLyWkb/JMReCRulqdpyMfP4MQ8Edyv4mGqV6gvNT7QOuKyc5r0XyteOw+XgR+Z9TE9FfS8UiyqP/tezrVlFpnEjLL0zKsTYxlO2vakZnokN5B5qvmpPcXk23ovOtHNc2+TzuR/BV7bVVLHLaZYzzke81KncZKmvam0iWzzm4qrkj2ce/sxlXqcfPuubpr1ViMSlHE+dXntuI/88vD5LMrteTOQ+JppREs9B5KRJ6SfI66iU5CxOLzS35DoSl6LiyyXQZH5R8dqsEq0cKndcH5lMp5G4Q4V0n+SKfK+tkn0sR3zqx3irZfYNS5rfOS4M+p2RV46lfrE7JN3he2VZ1UYqGdko2o+1tbZLXbRf/bpDcoU+V7QU13Flhk41L50OeRBis7pAIkcbYCcmnzYeMpV5yBoYz4jMe8Ul28ZnVsVPqyPieLjxZcqRRQWG4KI0Ethinp90nRfRZpmMefnW5Q/IeOyGFPHIaG3wW/oOyJ42c4ZePtUcaHMsMmBoO4zCr5Sydprm3N0nbgtJV3Ue95OjYKTmsBt+xdUvHIm9LHptczrI/C+viKJe7scE9xvuSF+sWKTByUdlWlkcYMr6jbm+wnTYtxoelgNMoHYzOVwMm51aheSgbHwlITsP00J+3U3gNMJQrbcWSlXdmCtmPuq1JvhjGb4IyJpcl3wlpTNk6wSyd1PVWh9TR4ci4xuROswnCfT4kueXw6e4pE1+Lsq+/E8Y373wRxkdMrnPyoi1bk0hjg7RUF6szII2okUvlSfZ2qfOr6HxT86d017bUuW+4aPMtV/nXlhezMjQFaW8iZxwzrnm56zhZx5owv/LbJv88SDK7Xhd3HhJNPTZ4Zxv5JvugR/L2RjIv0vKFXdxwvG6vFIrmecMuh9SFVtfgHY9K4T1uUQG1SjbvMV3Yc9yswt3JSqu4cGfEeWxQCiQqreIz/Q1VrSDBLrkDg8p3RAU43CO5UzfkUlR2/yCFvXckj7PnmObHBs2xTCppiTCIOHUfiybiOx49LZ3OavBomaVRgWFIVR61PxTIP6D4JLdzj0HDI1PmTVKTvtr8SCyiItF9NBkebcUwq3Gjhl++YXZLvRE1THJ5Dij5lV1mzG6+SQaNpVz5a/hZoXmrq5jZPFIgERdtPJTPMvK9V6kkGlT2x45JXvkzm1vaE05un5A6l/TlUR+G9PfGo0elbqUykvkdmXHjMklT9rU/PIxFpJDPIzn1YTZikvYF52FqnbaSKqdvSPK52zLzdcquAWbkvHBKDu8L0gFt3qV+RDHIb0OF7SdXmhp+ppYxOU29b0uR1DVIXBMCHuUHA90PVWbplFovf0d7/v9OipzOlWJm1zbFBA3e5PE056k4P451K5V8/X2o4HPKTLo8pM91mVzGApLXIcKjlq1JpbH8mbj+uXukcOK+LvZ/7CmlAWdwvpqkVULR+Vb6a5ucd3c4vNL+jB/pNQ2/rPKb6xolMylDU5n2hia6bqh1HO1xksajx6Q9OX+Yk8Nhcp7lsU2heWB2bSnqPCSaBmzwzipyJXyr8VMylXyBdzxp8LRoimRcaA0Wg4qYeYVHvcmZPBlMPXnS3hDUG4xRw1q+Bqs3YbObSAGV3UTlwqSSlopT5nHSNwe75AmNGHzPjEkaFRoGtUJkmA8TyxX+9GfiBqv/1dysIqauN3zCKfapPtEzq+waxsOocmRWxkz2VXDequvkuOzU/eik+SzrjQSzCpG63qg8Cmp5zUiXXGHIlWa5KpPp88k4LfJgcm4VnofqOpM0SZnCa0AR1HiXaj8Z6WcaB6Pynzud5Aq++jZIRljNjpFaL/bn6dVUoidiFDYNk2tHKv5G11LDMBZzTplI7d/k3pQy2TQ2Sssc6WV2nZUZpomQ81iyXNcVzWd5X9tyMAtjzmuUrBzlu8C0NzRRGijxMrwGim8bXSsmzC8hn23MmOSB2fW68POQaHqwD+8sEh8K4uFP78R9uUZYrG7EfRvP4eFXhrL7pswEvS7UNf8Uffn0lRr9CIf2DYjr6BrceYNBnC1fxy13r4IVUXwwfE6J778ifKgXMdRg+Y2Ls0ZrtFhvwC3La5S/JiOO0fA72BeLiShdhzlq/5fU8mXUufaL7bRh07BvwL22BZPsRF9EGKqvxU2314t8eACbPcG8+iIZMgi/Zf4iXC/u7PIIoRvv+veZaV9dg7pl4sPYaQyfVfNeDb8V9tbbcYPBoD+WBf8Rd7fKA51pv1eMK7BkxW2wi5LR+/KvcToV7S9w+ujb6M2YVmYyeSvHZQNs1rnK37K5mL9oifhEfNp6N+5aOi+5OsGC6oVLsEz8K3MeV7Uc74er7su644tlznVw9cZM0sUoDJr8OXEaI3nnuwhfXSNut8ppsRWe4Klp7I81D3U3/ZmInUiTzY8gaNoPdqquAZNjOG/vZFkWYcWGFeIfR/Hy0eF02YwP4+jLR8U/VmDDikXKeaum0wq03vlNg5Ft52LBLWvQKp+2BYVV7O/eb8M6uYtb/oyupZZrsOh6OY8/RmRELbGTOad01MGhzO5NKZNNY6O0VK8nMZyIREt4Pk6Ub6W6tk2VWZD2ah1HrhfN0ZVHscypc4l7UyHh08tnmxLJ+zwkmh5TcRpQScgV8xD+WFdjcOHWkm8yi/DHjEr9NMialkjCeDSMgNcBa/9ONN/7vMFANZniZ4fxgTzaw4Q0N5/UPMCLUbcwd0pNziWcHT4tjjyRGly/6JoynWhFhMHyDax+rBseG9DfuRZ1Vy6E+eBW5ZZv+GWTv2FaltyMDXZRu+l9G0dPf5FcqTYErPei/S51WpkZkLc55rPOYF2CRfMzG7alJs8j+9jzO2ETVa/OtdfhyqIH+JksUUFd7cHzHrsovB1YW3eV8cAuU3YNmIgyKIxusBy1Epu/QvZj/MNO/PSv8bJozFndP8Bd6tRI+ZYxWUE/ksxQJTyn8r43XW5pXAh5ILygbqBC9UeHUpgFaZ9vObJevwjzy3GjKXceEM0g5amHExmwWBuwZtt/xfPy1ES9fw9f/2yaQN6MFXbfYHKCf8MljMebrlG2LZfCwmCx3opdR04hEnoJXsdXRcP3PqxutGOT/2Rlj6ZoWYyWzWtEaqWffqUaAq23oHGe/nI4E/J2HXyRzw2OrSzRXWjKCnepzYW16WEcGYsgtN8Lh1U0fF2r0NjwQ/hPTfH0YpYFaNr1FsYiR7A/8eNZJ1yrG9GwaS9OzajGwiXE+h7FqrqVWOvqRL+ytnCF78eypBmb///t3Q1wFNeBJ/C/RIVzrliczTlVHkEqFEtJ5Ba8TkThPS97GcAe2ZvYRYExqdgIW6ozm8Jb5Dg8irjFwcaHYomCOLEvG7tmDCLO2SZS2cYcRjCy2JBUQUn+wrdiZOLDFZjBCflAcGfDnqbvvZ7unp6e7p7p1sxoNPr/qtpGMz0977vfm+7Xr0XexaH/sKPfxdCItU03wXwNbmqqhDo1taWSR7DlriCWr3oInQMcXIkTDeJjNmVR2xJPLit6vWUe0FTDVp3KrPCliYxbMPMKYKF+5btst9CU6rYyL8YThpmoX7YGm/e+KwYPPQgHf4/u1sfxsu1yJqWSuR0uv2JcrdNvYdOvfjkNBCogbyvxVrAZ9Vh2z2bsTVxCvKcdwWQUrRt/nvdOjeKrFUEJ4p7Ne5G4PIyecAjJ7nZs1KdxVELajR7HD+7fJgaoIYT3nEDC1Jkdi0fEqwXycxxjqof2w45xF0MITYs+r+0kGOlUgIXzMHuyrzNcxHJR8LlpqqVxQS5i4Aft6BgAguFuDCauGmVaGRtGRN6FUwyTIO39TTMphjLlAVEF4YB30pC3qi3HZ/J2wK8h+f57+IwxH7HSXMG5+Ifav/PQ53329eK1t/+kvWiS+g2OvnBADEvM89L0AXUCJ9/6MCetUsm3cfSkzW1Obp2h1Mc4/e557Q9dLWYuui09/+fku/hgQq4uFSMMcvDwd2hdK+f9lXuAoM/xEgPQfYfwtk34U+f/GS+o87jvwJJ52q2YgltHIZWM490LV7W/LGbehCY5J1he/RoZth8IVETefh6LmkJi0GJfjifWTNSvaMZa2SkaR0fNdx6azZiPFa1r1Ft4Mz9OlKsNcGbcqhhaI+rWYt9z6PwdRy+/6R92Rkac7mLQ0+k49r32nk0Zu4bzR3vTc+xLej5x+4FJnM9OD+OC9tf4FLFOGecm0/QIW5WSxhXEuNV4Cda2rkaj5VkDxTMJ0l4/HyXfw1sflPFumbLlAVHlmArNa9WorV+Jx77wGp4dshn8aVLJY3jm1bl47F59PmIFURel/y+4Xy4gH7wP9y42DzJsGLegHsQjd23E7pOZeaap5EnsbX8Iq6LvI9DyTTQZg6HrMK/pm2gRnb2BR7Ziu/GQnVGMHNmNBxtD6LC9fUc/OQ6hc/szxkO10t/zAG7Z1C26Yxb6yWpgE+7a8BSOmB+io8+NaXoU/aMlHDB5CkMKo/2PoskyZ1cuyn/w2LD4V/nnPBq3X6rh/zFOGvNC5UL8+9B+/8OIJhegZf3y7A6J8RCsPdj+/Zg2h1P7zLdWY1P3++puufROr+gEdezEPqfbmSc8bzODloFHWrFh52HTA8Yyczqb5GL/2qv+mQaIR99Op2Xqtxj5tTzyRfS33WeZsyvSeTCGY/KhPeO5MuI1D0f7RZpb5uymkhg8eAynRI4ad3mUsw1wkBnM/xLHjbIjvr8/ivb1/1jwHF7fxzF+2NmHjo59Drczm9NJlLHdv8xK16G9W3H/qmeQDKzE+qa5JTyfmB5u1Pkkvt9/Pt02aWH41i0Po7vQhHdVxDplPBzM+gA1WX5fR1TWmX45ZadS0riCGD8sDePY8TNa3ZTp349o+0aH+aNubZSTSkh7U9k++QsMqm2KKCMjH2nx1s9H6T7OziMjpoG5rOe9prJURL7ygGiSU2hyUdc0XW9ZG1TS1lJtfqIy1uFVH1PvsOUsX+DyqH/Xxf3FZrP8ikwLp4XcM4uj2yxvYKzZZ/1cSAl3bbJdozGzxIn1M9rmaTkdN85pVHgYMksk2O3naTF9u/D7WRJDcA+/07IK+vqFNp8JblK67NYv1OnhVPd3WuYiX7jElhVPt+Uq3JemcE7Tq0oits0+jtqWfbw8S2a45I8RBmPTj6EvB2J+T98WKC09Z3O/x8ox7z3mYVa+WbbABqXnnLkdKF8bYC+zvnTOdmtQCcp4FNQG+D2Opa7b1UlVvjLmYamRcS1B4hRPUf/DT9isey2+zrUtdVrGxmudcmGshWx3HPP3FjGNVS7tybiWJXLKt2K3bS71XqRbMPgX4v+5YXFuoySnMJYx7Z0YxzN9rzk98vVxrGU4b34JeffxngdO9c1fPSQqvynxg2JVUR/a0onWL/5vvPDgQhhP1lv633D88l/hO8//VyybyNtT3ObNBJrRtf8gBod+jJas5QtcqPHdDzGYh+j0aC8K6rHeRPzAVpv4zsT8lt0Y6NuFZv0jcv+eQQw9vwGLb/w32osWMxZj089ewZ6waL5VAQTDEcTi+9Fx919ietZVpDT1AVAHBrSH+WgvSkZct5X8ASiFh6EWM5d9FwPqw6oWpPeRgmFEXhFp89xKzJqAFsEIfyQMcQI2BJq7sD82gAM7bre5lbMWMxo34GeD3aZyEUI4EhNlYjvubrhe/O1wxVq/+iXl3M6cMfF5Kx8WtRUH9Ac0aa9KatrIPOsozsNMauvvwY+y6sudWHNrnUjlG7Bs688saSDrxbN4ZbAPz6380jiujHjMw5lBbB2wpoXc/4DIi11YOcvcDpSvDbD3OTRueg6DPeZ00+L28hYs1l7Jz+U4h57BWnmF3FbmtnzJ/qFskl7GYogYcZYWoLnrRTXeO5aNd/m0Qmjx3GNqA2S7JOt/xyo0yKwtyjzLItapGQvQ8nyfJW/04/wE3wnqD7SrlDSuFHq97zGdh/R69j/xk7Vf1V7L5txGuamAtK+tx70/et4UV/HdaxajTv9So49jOS+rYXxBtLMH0FH0hyP6ywOiyaxGjnq1fxNNAfIWzTuwvBMIx94ow1N2iaa41GlE71yG1r4liMS70aIvizNh2AYQERFNJVPnR0UiIiq7VPJf8Es537cMawYTERERWXHAS0RERfYpRqL3qtMtps1ehagc7zreVktERERUOux90BRV/icSE00d5jWW5Vy0NzCwNViU+cbFwzaAiIhoKuAcXiIiIiIiIqpKvMJLREREREREVYkDXiIiIiIiIqpKHPASERERERFRVeKAl4iIiIiIiKoSB7xERERERERUlTjgJSIiIiIioqrEAS8RERERERFVJQ54iYiIiIiIqCpxwEtERERERERViQNeIiIiIiIiqkoc8BIREREREVFV4oCXiIiIiIiIqhIHvERERERElMcoTkdbUVdTg7rWXpxPaS9TZUt9hN7WhaipuRfRkU+1F/NLjUTRVCV5zQEv0TjpDUJNUxQjbPxp0vkUI9F7xYmwDk3R02ARJiIqt4vob1vkeUBSXilcGYrg260ncXvHNtx+6Ht49JWPJsE5w985rnr6dimMDvwED0d/j2DXZtxbf532en619ffgqUgLEN2BHw5c1F6dnDjgpeJKnUa0qa7CG20iIiKiSvMh4ueuaP/2KzPAW7rzJMZ7NMOVQfzT5i7EWx7DjnA7djz9NRx6uAuvnL+m7UAVSeTbs9v3AC1P46ebFmOG9nJhZmL+A4/i6Zar6Ny+D0NXJu/InwNeokkjhdH+Lelbidr6Maq9ShNotB9tdTWoqduC/lFeG520pmI+TpY4V1I4Wd9JpV+NXYS2/kl21ct3GRaD6Jd34pH4Sjz9+Dcwq3Y6Zq14BE/feQwPP/q6ze2u7K9UBmu+aS97UfslrHj8MbTEu7Dl5ZFJcEXfHge8RERERERV4TrUt7wMRUngzc1er+g50Y6ZeBorZ01PvyQGQisjp5CIrPQ3kKIysMk3H2pnrUQkkcDhlvmTduDIIkpERERERERViQNemmDXkBzqxc518ulxNeltaRuirw4haXffxJUR9EfbsFTft6YJbXtP2u9rYTxtTt5ec+U0etua0seoexi9WXNQZJheR1R/X90WYt3OXgwl881VGcXIkd1YJ28ZUo+9Djt7HeIipZIYevU5tC2V856dP5MO+zRcv7wDSfF3snM5rtf3z3qgQkokUX922EV67h1KFnAbij7vJ32bVio5hN6d69RbkuRx6tbtRK/jcTzko+s8b/02qMzDJfI+OMLleNY4qOUl+rpNPuaL+24cGTHdlKV/5/XL0almSAeWXz9N+45C5q97yafSpW1hCv1+tzSsw9K2fZl0F/X4iNN7NgrORz3+6u16n1rCLevwYYyY5yCNKx9LG99Xs9o5t/pX2rJbcNpnheO3Isq9Rrvm6wmfPsJZcJp5rScVWU68nafc29HcByb5b3cLb6+yzsnyXNi7M3PuzGoPLedVx7ZSYz2WmpbP4dWcz3isO8b+X8DyziHx9xA6l3/B+I7C2lVr+ti0S3YK7Cuk6eEsVhnW2eSt7/6Kh/ai4PwsUFY9c2knXHmrf2lOef9/tbSw5IPXdipLYXnlTvZTBtD7c3Pap9Pr5/0jxZsbXi4KTUKXlHjsRaWreYEis1DdgmEl8sqgkhjTdpkoY8NKJBQQYVqtROKfaC86uaQMR1qUgB4HyxZo6VHOmeMzdlbpaTHF2dgCSigyrOSL+lg8ooTkcZu3KR3mtEOjEo79TtvLPUwItCiR4Uvavmn6cRHcpHSFQzafCyjBrhPKZW1/w+VTSiQrHNlboHmPMnw5HSvjO+y2UESJa5EfO9ejtARs9ikoPz5R4pHVYt8FSnPXU0o4KPPRepyvK12Df9T213nNR7cyMqZcirWrxwqEY+LI8iX3MmWkjSkd5HEuD+9Rmm3TQmyBDUrPuavavpIp7h3b7D9n/owRJpv9CkjrwvOpxGmr0uNuV4+8fH8BaRjcpZyIv6G025Ut8d6gVt4zPOajHv9As9LR0Wwb7qwwjysfJyC+8rsipyxtSanKbhHrUKBdiV2yxjWPYoXTLs281pOKKyfjOE9ltZO63ymxcKP4rOlc6JpGTsfz1l7px8g9J+ubON+cOKXE2u3Oq3bnIsH1vLpAaek5K3JY57HuGPvb7FdQP+SqkohtU4J2nw9uUMJquM39EY2HvkKaHk5TmMZVhqXC87aw/kqB7YWn/HSSSY9g+ImC+zbOdcZ7/XPPe73vaMl7r+2UwVs9dOKajwWnfeXggHeyGTunxLa2K119cUunR5z0xQmzK9ylxBLmTkiZ5TlJZojwDu4SlV82QN3KoCnMY4kTyp6cym+q3ObG/XJciUXalRYPA161sooO8a4TCfUzY4kzyhn1eHqY0u9npfHlYaVHH8xaOiDW43b16D88iAbuxNNaQ25Njz8qg11fVz8TaN6l9MX15krmY4/WIFsHym4NnKR3WswdPHm8mBIJbyrghGY5mQfDyp7BdBqJRFJO7NIGENaBpad8FDw34jYnb4PDe5dPKF0yDc1xkEQ8BveE1Ty2H/Tlxn0scVzZpZ1wc9L9UkwJy/z11KEvNJ/KkbaSU/p6/X5rGrYrPWq5lnHTy7T2Xlb969M6+jb56zUfszp15nCb66IlzSRf+VjC+Mqy0fWGEjfamUtKvKddjW9ux6xEZXecdSjQ/LRyQk/7+FnL+cqDQsPpJc38diQropzo9TK9v+fzVKEDXiPcNuXU9j2v7YUpTOoWUsI9w+m4mOOhbiJvdx1Pn1dlH0gfAOfERT+vimPtOWG6ACDK4GB3Oq2z8s5n3bFNrwLo5cccV3PY1HBYj+mnr+CSd77KsF4nPJyLjM/YpZ+Unfb27YXX/HRi/a4upUdv0xz7NuIt2zrjr/75yntf7ZSfvLIn4/91kVb7sy6mmQbTtm1J5eKAd1KRlX+j/a+aOnnyb37K5hfhMnGtoGbaCcOhwugNTaYiZypx7sm3MJmTa0hpj52zOYZ+EnP45di4wpzdWBjHtf1Vz+HEozd+tr/ei2PqVwCzGvN8JxA9/PnS3knmpJD7i7Fgm7de81Hw0YgbaWz9Httj6cdwSAf9M04dn+C2nB+NHL/fV+eh0HwqT9o6llHP3++Whqb3cuqJU7h85KMRf3Gyb+8znaQlp3gKvvKxVPG1dl51V5VzPRtc8s8uHOKovsquj7TPEw7fCgqnxzTzVU+Eiignevvh8zxlW5/1Yxb4Gdv0895eGce3OSdn3jP/MKhxygf1dac+gp7W5jj6rDsO6eXOvaxmfuCwHFOPq6e+gh6vYrV13vM2E1+beqRyT3uV5/x0kvmuwvs2mXhlx9tP/fOZ977aKT955ZFt+1/5OId3EkmN9OJ7v7sbDzV+TnvFxoxFeGjdRXyv0h8dPvoeDu8bAvpa0TAtMzdA36Y1tKJP7JZ85ywuqBGpxYyGRbgzkBQf2Yj23tP+5w+E1uCB4KzcCex6mEIrcfdXbNK49ou47b67EEAC75y9mJu+C/8GS+pnan/orsO8JXcgBBHul36FM+qHUhgdPIp9yQBCa+/EV2bkVsPaWf8R961tFAlwBmcvOM0HsZqJhlv+WoRvP1rXP47erLlHXgSw8Gu3oN4arto5WLJmifjHcbx0/Gw6/p7z0Z/aebdiTUg07X1v4PiZzFyW1Jlf4aW+pMizO7Bknr6Y+h8weLhPpLhIh4bP5oSpZtqX0So/Y5u2Mk/WIBjIfpph7Y1zcLP4epw6g3PjXoeuwHwqU9o68v39dmk4HTfOmSfeEe+uvQ/3zDfXE1G3Z8/DQvGv7GONJx+XYO0Df4tAVhHWw5DEqXiiiPOPih1fEfa7b7J5sup0zLptJdaKg9rneTHLbvHrUGmMN83KqUjlZLznKQ88tbvjaa9szslGuQ3chXX3/PvsvJ1Rh4aFMlPN5U8/r8o+wpcxzfL9NTWfRUPrfrGfXboUs+440ctqHRZ/dW5OWa0NfAW3La7T/tKVqq/gUUnPRU7txXjy04mHvo0TX/XPT977VNK8sihlmSuB3NpDFepTnDkew7821Nmc1M3kSXIO/tUYXFWm1IWzeEecL/MJ3DwHN2qltHbWN/DET7chKKpr56ov488cH57iT6FhErV8nB3ma7hw9ow4SiG8LEIv18Vrx0/bQ8BAB1Y1XO/8cKMi8ZOPvtiekGSdeEOUhkaE2+5GvX781EWcfSeh/eEiMA9zbixHp9yqsHwqW9o6mOjvr/x8LLJC4ysVpQPuYrKkfSWlWZmU7zwleGh3J7y9KPi8Woeb59xQ/s6vUVbnomG2ey8uo1R9BW8mJm8rMz991T9fee9P0fNKPii21/KwNP0Hz0mm7HWeKEsogviYemu97ZZ4chkyv3lPR2DZ9/Dm5Thi+7vQHBAD39a7sKjx24ie9ns1s/SMX4nLoXYWlu04hMvxN7G/qxmBgU60rliExgf34vS4O3uZqxE5POWjH9dhXtM30SKv8Os/5qTO4vhLx0XLHULTos+nd8uyGpH4J7bhUbfEDiybOUFNoJd8Knna5jHR31/J+Vj1mPZTm492d8Lbi4AIwjDGbL47vQ3iyWU3aPuSJxOSt+XIT5e+zWRVhLxKJY9gy11BLF/1EDoHJt8A14pnKpoQ47pVaEY9lt2zGXsTlxDvaUcwGUXrxp/bL53gQeED0wAW5r3SnqH/4pb5Rc1L4+rnF8FakURB3LN5LxKXh9ETDiHZ3Y6N477NXf/FNfOLanFv+XJn3Lql3V6n31YXWHsbFpk73bU3YM7NdeIfpfvFuzjc86mcaWtnor9/8uRjkRjxLcDCeZhtc3tj0UyWtK+kNCuTUp2nnBTa7k54e2GcV4s9ZaFIfNWpUvcVClN4mSumcuZnbt/Gia/6V8b2tHh5dREDP2hHxwAQDHdjMHE1M2AeG0ZETnWYZCZ/6z9lyLmgy/GZvBX/GpLvv4fPrLkV8yo5d2fehCZ13sl7eOsDv1dnZ6J+RTPWyopXjJOsPi+orxevvf0n7UWT1G9w9IUDolFcgjVL5uRWnmu/wbmPrbdX67d/mTsf+tysJPr2HcLbNuFOnf9nvKDOEzHPTfVhxnysaF2jziH2ctK4Fv8XnLGGS/9l33xi9ZOPbo1/6mOcfve89ofV57GoKSRSUt5eN4wR7ba6tU03WX6p1PdL4ORbH1Zex8eOXT6VNW1tFKWOjsckzMdxmYHZDXPF/49j32vv2cT3Gs4f7U3P5yt5+z5Z0t5nmhWznpSbz/OU24A0lYzj3QtXtb+sCmx3J7y9qMXMRbel52uffBcfTMig241eVu3rVCr5No6etN6eX8a+gpt8Za4kSpOf1878Bh9bD2XXt3Hiq/75yXvBTztVrLwybsNegrWtq9FYlmcylFZJT5lUXLX1K/HYF17Ds0POhTiVPIZnXp2Lx+6tr/DM1U+iB/HIXRux84h5EetRjPT3Itp2n7oYfJpcGF/8nTVnVwzuB2M4dipZnF/va+eiaf1KI0y7T2YWIk8lT2Jv+0NYFX0fgZZvosnuxDKwDcsb/5MpLiIevY9jvXywQmAl1jfNNfKkdt5yrG9ZID6zCXdt+DFOmuM0tA/t9z+MaHIBWtYvN3Vs9ZOfPAH8AoPqZ8T+Ix+lv2+0H21NlrmgqSQGDx7DKRGrwn/tT2KgcxWCG57KLLp/5TR62zeq8zay4+81HyW98R9C5/Zn0K/FPZ3GD+CWTd0iBHb0E6A8+e9Exz6n2+oy+w080ooNWYv6awupR9vQ1NYvQjhO+sklOYSjg+nykkr+Gr92OzkXnE/lTFs7fr6/mCo8H4suc/uoGt/dv8wqH0N7t+L+Vc8gaWlLfHONcwnTXpb/uhrU1G1B/2gB6esaTr9p5rOeVEI58XueMsK+B9u/H9PSSTvffGs1NnW/r+6Wq9B2d6LbC0EfdKvnVdP5S9LnIjY9Wli5c2UawBx9O52Wqd9i5NdutcFcVrdiu/HgTZE2R3bjwcYQOmxuG/XXV3Dhpwxbypx93n4DTdHTRlmU5ca1v1KIouenSPuOEBof3F1A38aBr/rnL+99tVO+8sqGMdgexrHjZ7RjyLa/H1EtvSYdhSYXdQ269ZY1yaRLSjwWUcLNTxRvOQg/jMeow2EzPV7dvJ6e7WZ+RLv+KHi7/QpbANt5iQGTfGFyWbrAefF8m2UVhMyj6K37y81uWRXBLn31+OjLDZjf07esxfOdZJYyCG7a5LAIv83SS57yUWOsnWndN6SEuzbZrPGpyy4Hzo/Wv+q8yLu2ZX/WZRkHyXEpB9PSCsZmt4SAiZd8KkvausTd0/e7paH7EhXOddNjPvpaxkHykY8TEl+7JdXcwiH4LrtFrkMaI+5501c33nA6LEPnqw3KFxY7bunis5z4OE/J7zLWD83Zf5PS5bo+Z4Htrsf2yrkeCI7lVnCp5+7nVbFlHS9PmXUJQ6Yc65t7uU8zrWFq2QLNHcqzDnngva/gFi8/ZVjwcy5y66/kS3uNt/x0on+X6It1bCu4b1Pc+ueW93rf0SYN/bRTfvIqh0t7IT4fDP6F+H+hbXhl4IB3UpKD2xeVLvPgKhhWIq+YF4eeKG4DU7lZK4hNXGSj1PWC8oq+MLjuclyJ7e8yNVaioQ8/m7ufA9eTaxbtxwNzIyMXGN//phK3WwdPO67a6MgwRsKZRkLmS8y0MLmVdX95HLnQt+Nn5GLzb5jSyzyYlu+9qezv0hZRVzfRKEYOZC0+7sx8AvpfyqV4TInoi6iraZ29iHk2D/moySyCrh8/osTil7T0dDoJZjqI+Rttu/TQ0jenruQ5+bp1vkQe9pm+w3advyxe86nUaZuv41Ho97sdx+8AUPKQj74HvILnfCxlfM11T24yvV9U8zBXKctuEeuQxj3uDgoKp5c0S/PVBlVMOfF2nkq7qiQGu02fke1OTOz/f7QwOnVgvbS7hbdXrvHzOeBViTzK7ivI48i0OWhpY8dRd2Q8+3ZlvsPux2Bb1nwTeaBewNDD4hKngvsKeeLluQzrnPO2xzYcsl469VcKay9UBeenE/27ZNn9WBzO2rdJ13ur4tc/a5kR+/fIdlTvN9vXLX99Ja95ZUe2Fz2mY+jffUYLr1N7UZlq5H9ERIhoyvsUI9FmNLQeF+17Pw61zB//bZNERIY/YWjn/Vj0CNA1+FNsdltTnohoSpBT9u7A8k4gHHuDTxEvEfZniYiIqORS5/vx33e9hWDXo/h7DnaJiKhMOOAlIiKiEvsT3v4fURy6vQM//vtF2oPZiIiISo8DXiIiIiqxz6Fx8+tI7F2H+VWwHi4RUXGVbi1lAjiHl4iIiIiIiKoSf2YlIiIiIiKiqsQBLxEREREREVUlDniJiIiIiIioKnHAS0RERERERFWJA14iIiIiIiKqShzwEhERERERUVXigJeIiIiIiIiqEge8REREREREVJU44CUiIiIiIqKqxAEvERERERERVSUOeImIqlhqJIqmmhrUtfbifEp7kYiIiGiK4ICXqCwuor9tEWpq7kV05FPtNaLSq62/B09FWoDoDvxw4KL2KhEREdHUwAEvTVGfYiR6rxiA1mHpzpO4or1aeh8ifq5831Yt9KuUNUt3Y+gKL1N6MxPzH3gUT7dcRef2fUw/IiIimlI44KUqlcJo/xbUyVs52/oxqr1KNCXVfgkrHn8MLfEubHl5RNQOIiIioqmBA16aoq5DfcvLUJQE3ty8GDO0V6ky1da34LCiQHnzP6NxBpstP2pnrUQkkcDhlvls+ImIiGjKYL+HiIiIiIiIqhIHvFRUxhNh5W3EqSSGendiXV0NauT8y7p12Nk7hKTd/ZRXRtDf+zPsXLcwva+6NaEt2o8R65zD1GlEm+rE8bagf/RPGOndgqXq/gvR2vsR/p8ahmm4fnkHkmL3ZOdyXK8fsymKEfVwmTm8TdHTmVs88xw7/62g15Ac6jXFYyHW7TycGwed/n22D7PSb8u2hNGBr7T3El/rMeX857bn8OpQ0hI2PW0Xoa3/ovjYEHp3rlNvL09/Zh+GktfSu4p8P+L0nokxh9fIPzNrmottaRuir44zvjlSIrj9iLY1ZX3P3qz4O5Qr3Wg/2mT62cbD5vhqHXg9N01kfYm2aWGXm1NeyGwzp7/cZJnstU1nEUCM9EfRtlSWSf249nlCRERENCkoREU0Fo8oIVGsAs0dyrPhkCKLWPYWUIJdJ5TL2v6qsWElEgrY7JveAi09yrkxbV9J3z/QrHR0NCsB877hmPIHLQzmYxhbKKLE1WN9osQjq8VrASUUGVaMw+c59iVtN3tXlURsmxI0fcbYghuUcPMC8e9GJRz7nba/YMR9tRKJf6K9qBtTLsXa1TDk/26x93jSPl98L59SImr4zcfTtwVKS8/ZTBoaabtAae7YpjQHbD4T3KWciL+htAdt8l28N3jZnOGZuGXyT3dJGY60ZIXbvHktO25pPHauR2mxi0tW3jmUK92lmBKWxwi0K7FL5nddyo7YzGEbS/TZp5vcso47plwe3mOf/uq+G5Sec1e1faWryrmeDfZpmZPuRERERJMDr/BSSSS72/FQJxDecwKJMQWiM43EiafRHEhi4JGdeNl6NfMzd6Jr/0EMJq7KH2HENgbRWRf7i2NFX8ThMzZL+SS70d7+Fm7fdTz9HWMfY+ChRfhzdb7nGMRgEeLjEIMFiMFC+riHW1BfSKl3OPZM7W1bo8fxg/u3YQAhhHuGIQaW6XgPdiOMXnR2v6/tWFqe015yje+fMPRP30Vrd53pmKa4BX+P6MM/wcCo9dri++hu34buhnb0xC+J/UWexnvE/iJXBjbhloY70BG/HbtOJCDGUhADOYiBnHiv0AcrpXBlKIJvtx5CQ7jbVHbksU5gTzgkyo7DUjye8/ciBn64A9HkAjRHTml5K+MTQyT8RW2fcbAtOzIeg+jpasa/1XZTw/GDdnQMAMFwD+KXx9JxHktgsKcLzZkdxTEHsH3ZAyL9w9gzmE5jY989YQSTz+DhHx7PPNBNhOGHDz+DZKAFkWGZX3L/S4jHIgjPnqbtRERERDTJiE4NUdEYV+ICLYroNGuv6vJc/cqR5yqsvGLZ3qeIAYuNfFdHx3NsO/r32VxFFTJX5Up/hddT2hcSX/WqpFOe6cc1x0t/TYQluE2JJcxXEU3v5YTTOb72V3h/p8TCjY5XH40r3uZj+c5f7bts88nMIZ11tld4M5+xKztmRjrYXAXPpqelQ3j1dDCHQw8br+YSERFRFeEVXiqNhX+DJfXW62XXYd6SOxBCEn0v/Qpn8l/Cy2MJ1j7wtwiUpBR7PfYfMHi4T8SsDou/Ojfnqc+1ga/gtsV12l8l5ivtneKbwujgUexLis+1fhnTjHmg+vZZNLTuF/sl8M7Zi5arsgGE1q5BMDBd+1uajhvnzEtfeV97H+6Zbw5nLWbMnoeF4l/Jd87iQr7yMfoeDu8bgggYGqZZw1WDaQ2t6BO72R/La/7ORMMtfy3CvR+t6x9H70gxF7q6gnPxD8X/RZjuvsnlieEpXDl3BqfUdL0TX3F9WrVeHkV4Gz6bkzY1076M1r6kSJwzOHtBm5874y9wy50LRHr+I9a39zrPOyciIiKaREoyVCDyTj4sp9fywB59MDUJpC7i7DsJ8Y+5aJhdTYscXcOFs2fUh3+5q8PNc24oa4OSunAW7+QPGAI3z8GN4w7YdMxa0Y6ftoeAgQ6sarje+cFYXhllJ59C80Io9JiBeZhzo/aDhFyr94ldaA+KKHauQsOfzXZ8EBYRERHRZMEBL5VV7Y1zcLO8vGeWOo/+LavRsHwVWjvlNTkqBdu0L1gAochwZh5ozjaIJ5fdoO1bZqEI4sa84twt8eQy97nXhaqdhWU7DuFy/E3s72pGYKATrSsWofHBvThdsVdDVyMS/8Q2XdQtsQPLZmZOA7WB27HjzdOIx15EV/O/EwPfh7BiUQgPRt/HFW0fIiIiosmEA14qK/2qXOaqWwqjA8/g/g4x0A1aHq6jfIJ4ZLX6uYpXewPm3CxvWf4Q8XOVOTTITftC6LcgJ3EqnqioQY8xgD91BufKNuCsxYz6IO7ZvBeJy8PokQ/G6m7HxoIesuXAKDv5ZG4Hz6vgY9qZifpla7B577vaQ8Z+j+7Wx+0fdkZERERU4TjgpdK4dgbvn7HOc/wUZ46/gT7RZV/YUKfNVdRv05TzEh/E2sbAJC2UMzC7Ya74fwIn3/owZ2CYSr6NoydtbjF1GyinPsbpd89rf3hQcNoXohYzF92GtWKUlTz5Lj6opCuZM29C09pGEbD38NYHxZxTW6AZ87GidY06LzrzY4DbDwTXkDw9jAvaXxl62TmOl46fdRk463OcC5kDnznmvtfe8/lDhRzc/x1a1y4R/67cH3KIiIiI3HDAS6Uh5zkG/wE7j4xone1RjPQ+jvVyTm5gJdY3zdUKn2mAcOxE5kE5V0bQH/1een9fTA9AOvkLDCblg3nEgGPkI5+d/3yuw7ymb6JFXfpnK7b3ns7E+8huPNgYQseA3exLfWAyhM7tz6BfDaccIJ/E3vYHcMumbpEyHhWc9gXSB5YDm3DXhqdwxPzAJplPvc+hrelR9OcsS1Rqn8eippAoOwfxyF0bTfGV9Dnh96Gt32ZZIq9G+0UcLXN2U0kMHjymPkQq8yOCqdx1Ponv959PD2DFvkN7t+JbtzyM7pwMNT1QrHUj2o2yIz82hFejbWhq6xcxEkefdyvWhAK5D5aSx3/VnA/m8tiKDTsPmx5ClRLZNoBecdylTVGMpAMoovio+J7sObvy+w8eGxb/yp6bnhqJoknOszc+T0RERFShFKIiyiybskEJNy9ILz+TtS1QmiOnspdeuXxC6VKX7LHuG1BuDd6qLvVjv5ROniVijP1MxzSWXHFYPqbQY9u6pAxHWtRldbK+U2yB5g7l2XBI/NuyLJHkGP+QEu7apATl570sS+Ql7QuMb2ZZJesxtc1hmZ3cpXncl1qyX37I+XVl7JwSa5fpagpL1uZlGSgX+pI9dt8R2KD0nDMvvfRHZbDr6zb7BpRg+AklLNMxK70k57Ijt0xajSmXh/cozY5hMR/3qpKIbVPLj+2+YjMfV88X2/1aepRzRnBNS0v5qidERERE5cMrvFQa07+K1h/1IBYJQ3S409Q5un14vmVB9i21MxZj088OoEc+CEh7Se4biQ3g0E9a1atlvtTW494fPY+u5gXaCwvQvGYx6kpW6mdifstuDMQiEIMa7bUQwntOYOj57+BrDdeLv22e4qzG/xXsCYshnSogoh9BLL4fHXf/JaZnXUEsgJe0L5D6MKMDA4jt74IYbGUEmtG1/yAGh7ZlPfyobNQHSe3XHrKk57Mk8rrrBbwyeAAdxXiY1swgtg5oD6vSXlLzNnJAxH0XVs4yL730OTRueg6De7LTX5bnAx2r0CB3XTgPs7OWFZJl58cYGuzJjoeWvge+s0R78FYtZsxfh+eHBrPrix7fA/+AoJEPouQs24oD+kO2tFelQHMX9ve8iYGtQeO4M5d9V5RdSzrKcL8yiKHnVmKWEdzpqPur/5COW+gOLJl3nfoqERERUSWqkaNe7d9E4yZvdbxTrn8qn5x7qAX1EzAGmqqY9kRERERE2dglJiIiIiIioqrEAS8RERERERFVJQ54iYiIiIiIqCpxDi8RERERERFVJV7hJSIiIiIioqrEAS8RERERERFVJQ54iYiIiIiIqCpxwEtERERERERViQNeIiIiIiIiqkoc8BIREREREVFV4oCXiIiIiIiIqhIHvERERERERFSVOOAlIiIiIiKiqsQBLxEREREREVUlDniJiIiIiIioCgH/HytP7Uo9vTYJAAAAAElFTkSuQmCC;" parent="1" vertex="1">
          <mxGeometry x="150" y="440" width="536.07" height="240" as="geometry" />
        </mxCell>
        <mxCell id="GV5ksCkz0bDb9famMgce-12" value="&lt;ul&gt;&lt;li&gt;string color :&quot;blue&quot; ou &quot;red&quot;&lt;/li&gt;&lt;li&gt;int nbBalls&lt;/li&gt;&lt;li&gt;float[2] coord&lt;/li&gt;&lt;li&gt;bool isBlock&lt;/li&gt;&lt;li&gt;int level&lt;/li&gt;&lt;/ul&gt;" style="rounded=0;whiteSpace=wrap;html=1;" parent="1" vertex="1">
          <mxGeometry x="720" y="440" width="180" height="240" as="geometry" />
        </mxCell>
        <mxCell id="GV5ksCkz0bDb9famMgce-13" value="&lt;font style=&quot;font-size: 17px;&quot;&gt;Variable membre&lt;/font&gt;" style="text;html=1;align=center;verticalAlign=middle;whiteSpace=wrap;rounded=0;" parent="1" vertex="1">
          <mxGeometry x="700" y="410" width="170" height="30" as="geometry" />
        </mxCell>
        <mxCell id="GV5ksCkz0bDb9famMgce-15" value="&lt;u&gt;Touches&lt;/u&gt;:" style="text;html=1;align=center;verticalAlign=middle;whiteSpace=wrap;rounded=0;" parent="1" vertex="1">
          <mxGeometry x="190" y="320" width="60" height="30" as="geometry" />
        </mxCell>
        <mxCell id="vN0rIQjh9zlIm0x2n9Cp-1" value="Joueur gauche (bleu) : wasd - c&lt;br&gt;Joueur droite (rouge) : ijkl - b" style="text;html=1;align=center;verticalAlign=middle;whiteSpace=wrap;rounded=0;" vertex="1" parent="1">
          <mxGeometry x="220" y="328" width="240" height="30" as="geometry" />
        </mxCell>
      </root>
    </mxGraphModel>
  </diagram>
</mxfile>
